<?xml version="1.0" encoding="UTF-8"?>
<svg xmlns="http://www.w3.org/2000/svg" viewBox="0 0 731.11 216.61">
  <defs>
    <style>
      .cls-1 {
        isolation: isolate;
      }

      .cls-2, .cls-3, .cls-4, .cls-5, .cls-6 {
        stroke-width: 0px;
      }

      .cls-7 {
        fill: none;
        stroke: #0a3e65;
        stroke-miterlimit: 10;
      }

      .cls-3 {
        fill: #fff;
      }

      .cls-8 {
        opacity: .3;
      }

      .cls-8, .cls-9, .cls-4 {
        mix-blend-mode: overlay;
      }

      .cls-4, .cls-5 {
        fill: #0a3e65;
      }

      .cls-6 {
        fill: #f97304;
      }
    </style>
  </defs>
  <g class="cls-1">
    <g id="Layer_1" data-name="Layer 1">
      <g>
        <g>
          <path class="cls-6" d="M139.11,162.06l32.79,34.87c1.68,1.79,4.69.6,4.69-1.86v-33.01h0s16.44,0,16.44,0c5.04,0,9.12-4.08,9.12-9.11v-61.16c0-5.03-4.08-9.11-9.12-9.11H18.37c-5.03,0-9.11,4.08-9.11,9.11v61.16c0,5.03,4.08,9.11,9.11,9.11h120.74Z"></path>
          <g>
            <path class="cls-3" d="M82.3,135.1v-11.99h-15.28v11.99h-3.25v-26.14h3.25v11.25h15.28v-11.25h3.25v26.14h-3.25Z"></path>
            <path class="cls-3" d="M99.77,115.71c5.72,0,9.09,4.47,9.09,10.15v.75h-15.32c.24,3.57,2.74,6.54,6.82,6.54,2.16,0,4.35-.86,5.84-2.39l1.41,1.92c-1.88,1.88-4.43,2.9-7.52,2.9-5.6,0-9.64-4.04-9.64-9.95,0-5.49,3.92-9.91,9.33-9.91ZM93.54,124.44h12.42c-.04-2.82-1.92-6.31-6.23-6.31-4.04,0-6.03,3.41-6.19,6.31Z"></path>
            <path class="cls-3" d="M113.6,135.1v-26.14h2.94v26.14h-2.94Z"></path>
            <path class="cls-3" d="M122.41,135.1v-26.14h2.94v26.14h-2.94Z"></path>
            <path class="cls-3" d="M130.13,125.62c0-5.49,3.6-9.91,9.36-9.91s9.37,4.43,9.37,9.91-3.6,9.95-9.37,9.95-9.36-4.47-9.36-9.95ZM145.77,125.62c0-3.84-2.23-7.29-6.27-7.29s-6.31,3.45-6.31,7.29,2.27,7.33,6.31,7.33,6.27-3.45,6.27-7.33Z"></path>
          </g>
        </g>
        <g>
          <path class="cls-5" d="M658.81,162.06l32.79,34.87c1.68,1.79,4.69.6,4.69-1.86v-33.01h0s16.44,0,16.44,0c5.04,0,9.12-4.08,9.12-9.11v-61.16c0-5.03-4.08-9.11-9.12-9.11h-174.66c-5.03,0-9.11,4.08-9.11,9.11v61.16c0,5.03,4.08,9.11,9.11,9.11h120.74Z"></path>
          <g>
            <path class="cls-3" d="M555.83,128.17c1.06,1.18,2.78,2.28,5.04,2.28,2.86,0,3.77-1.54,3.77-2.76,0-1.92-1.94-2.45-4.06-3.02-2.57-.67-5.42-1.39-5.42-4.54,0-2.64,2.35-4.44,5.5-4.44,2.45,0,4.34.82,5.69,2.23l-1.2,1.46c-1.2-1.32-2.88-1.92-4.63-1.92-1.92,0-3.29,1.03-3.29,2.54,0,1.61,1.85,2.09,3.89,2.64,2.62.7,5.59,1.51,5.59,4.87,0,2.33-1.58,4.7-5.9,4.7-2.78,0-4.82-1.06-6.14-2.54l1.18-1.51Z"></path>
            <path class="cls-3" d="M581.01,131.94l-9.34-12.91v12.91h-1.99v-16.01h2.04l9.22,12.65v-12.65h1.99v16.01h-1.92Z"></path>
            <path class="cls-3" d="M586.29,117.18c0-.67.55-1.2,1.2-1.2s1.22.53,1.22,1.2-.55,1.22-1.22,1.22-1.2-.55-1.2-1.22ZM586.6,131.94v-11.59h1.8v11.59h-1.8Z"></path>
            <path class="cls-3" d="M594.3,121.93v10.01h-1.8v-10.01h-1.92v-1.58h1.92v-.89c0-2.4,1.34-3.77,3.36-3.77.67,0,1.3.12,1.75.41l-.46,1.34c-.29-.17-.62-.26-1.03-.26-1.18,0-1.82.82-1.82,2.28v.89h2.35v1.58h-2.35Z"></path>
            <path class="cls-3" d="M599.68,133.57c.96,1.15,2.11,1.58,3.77,1.58,1.92,0,3.72-.94,3.72-3.48v-1.66c-.84,1.18-2.26,2.06-3.89,2.06-3.02,0-5.16-2.26-5.16-6s2.11-6.02,5.16-6.02c1.56,0,2.95.77,3.89,2.04v-1.75h1.8v11.26c0,3.84-2.69,5.04-5.52,5.04-1.97,0-3.31-.38-4.68-1.73l.91-1.34ZM607.17,123.54c-.62-1.01-2.02-1.87-3.46-1.87-2.33,0-3.72,1.85-3.72,4.42s1.39,4.42,3.72,4.42c1.44,0,2.83-.89,3.46-1.9v-5.06Z"></path>
            <path class="cls-3" d="M623.97,131.94l-9.34-12.91v12.91h-1.99v-16.01h2.04l9.22,12.65v-12.65h1.99v16.01h-1.92Z"></path>
            <path class="cls-3" d="M629.25,117.18c0-.67.55-1.2,1.2-1.2s1.22.53,1.22,1.2-.55,1.22-1.22,1.22-1.2-.55-1.2-1.22ZM629.56,131.94v-11.59h1.8v11.59h-1.8Z"></path>
            <path class="cls-3" d="M639.83,124.47v5.11h-1.37v-5.11h-4.61v-1.25h4.61v-4.97h1.37v4.97h4.61v1.25h-4.61Z"></path>
            <path class="cls-3" d="M654.76,131.94v-1.63c-.89,1.01-2.4,1.92-4.13,1.92-2.42,0-3.7-1.18-3.7-3.7v-8.18h1.8v7.63c0,2.04,1.03,2.64,2.59,2.64,1.42,0,2.76-.82,3.43-1.75v-8.52h1.8v11.59h-1.8Z"></path>
            <path class="cls-3" d="M668.06,131.94l-4.18-5.21-1.92,1.9v3.31h-1.8v-16.01h1.8v10.58l6.1-6.17h2.28l-5.14,5.26,5.16,6.34h-2.3Z"></path>
            <path class="cls-3" d="M678.04,115.69c4.37,0,6.12,4.34,6.12,8.26s-1.75,8.28-6.12,8.28-6.12-4.39-6.12-8.28,1.73-8.26,6.12-8.26ZM678.04,117.46c-3.05,0-4.08,3.29-4.08,6.48s1.03,6.5,4.08,6.5,4.08-3.31,4.08-6.5-1.03-6.48-4.08-6.48Z"></path>
            <path class="cls-3" d="M686.08,122.24v-1.27h10.58v1.27h-10.58ZM686.08,126.87v-1.25h10.58v1.25h-10.58Z"></path>
          </g>
        </g>
        <g>
          <g>
            <path class="cls-4" d="M319.37,113.85c0,.34.28.62.62.62h13.01c.26.5.78.85,1.38.85.86,0,1.56-.7,1.56-1.56s-.7-1.56-1.56-1.56c-.67,0-1.23.42-1.45,1.02h-12.94c-.34,0-.62.28-.62.62Z"></path>
            <path class="cls-4" d="M356.23,121.95c-1.62-1.36-2.9-3.01-3.8-4.91l-.17-.35h-9.4c-.22-.68-.85-1.17-1.61-1.17-.94,0-1.7.76-1.7,1.7s.76,1.7,1.7,1.7c.68,0,1.26-.4,1.53-.98h8.69c.97,1.91,2.29,3.59,3.95,4.98.12.1.26.15.4.15.18,0,.35-.08.48-.22.22-.26.19-.65-.08-.87ZM341.26,117.67c-.25,0-.46-.2-.46-.46s.2-.46.46-.46.46.2.46.46-.2.46-.46.46Z"></path>
            <path class="cls-4" d="M313.8,140.04h16.8c.27.59.86,1,1.54,1,.94,0,1.7-.76,1.7-1.7s-.76-1.7-1.7-1.7c-.74,0-1.37.49-1.6,1.15h-16.74c-.34,0-.62.28-.62.62s.28.62.62.62ZM332.15,138.89c.25,0,.46.2.46.46s-.2.46-.46.46-.46-.2-.46-.46.2-.46.46-.46Z"></path>
            <path class="cls-4" d="M345.81,120.14h-29.84c-.23-.58-.79-.98-1.44-.98-.86,0-1.56.7-1.56,1.56s.7,1.56,1.56,1.56c.62,0,1.15-.36,1.4-.88h29.89c.34,0,.62-.28.62-.62s-.28-.62-.62-.62Z"></path>
            <path class="cls-4" d="M331.17,167.35c.28.55.85.93,1.5.93.94,0,1.7-.76,1.7-1.7s-.76-1.7-1.7-1.7c-.77,0-1.42.52-1.62,1.23h-19.46l2.21-2.21h7.15c.34,0,.62-.28.62-.62s-.28-.62-.62-.62h-7.67l-4.7,4.7h22.57ZM332.67,166.12c.25,0,.46.2.46.46s-.2.46-.46.46-.46-.2-.46-.46.2-.46.46-.46Z"></path>
            <path class="cls-4" d="M312.93,158.24c-.55.24-.94.79-.94,1.43,0,.86.7,1.56,1.56,1.56s1.56-.7,1.56-1.56c0-.64-.38-1.18-.93-1.42v-2.05h27.95c.34,0,.62-.28.62-.62s-.28-.62-.62-.62h-29.19v3.29Z"></path>
            <path class="cls-4" d="M388.74,82.52c0-.34-.28-.62-.62-.62h-24.01c-.24-.64-.86-1.1-1.58-1.1-.94,0-1.7.76-1.7,1.7s.76,1.7,1.7,1.7c.71,0,1.32-.44,1.57-1.06h24.03c.34,0,.62-.28.62-.62ZM362.53,82.95c-.25,0-.46-.2-.46-.46s.2-.46.46-.46.46.2.46.46-.2.46-.46.46Z"></path>
            <path class="cls-4" d="M377.75,98.12c-.22-.26-.61-.3-.87-.07-.26.22-.3.61-.07.87,1.43,1.7,2.48,3.72,3.01,5.86l.12.47h13.27c.27.59.86,1.01,1.55,1.01.94,0,1.7-.76,1.7-1.7s-.76-1.7-1.7-1.7c-.74,0-1.37.48-1.6,1.15h-12.26c-.61-2.14-1.69-4.17-3.14-5.88ZM394.75,104.09c.25,0,.46.2.46.46s-.2.46-.46.46-.46-.2-.46-.46.2-.46.46-.46Z"></path>
            <path class="cls-4" d="M313.26,105.24h22.84c.29.52.84.87,1.47.87.94,0,1.7-.76,1.7-1.7s-.76-1.7-1.7-1.7c-.79,0-1.46.55-1.64,1.29h-22.67c-.34,0-.62.28-.62.62s.28.62.62.62ZM337.57,103.95c.25,0,.46.2.46.46s-.2.46-.46.46-.46-.2-.46-.46.2-.46.46-.46Z"></path>
            <path class="cls-4" d="M410.26,85.35c-.34,0-.62.28-.62.62s.28.62.62.62h6.86v8.63c-.7.21-1.22.85-1.22,1.62,0,.94.76,1.7,1.7,1.7s1.7-.76,1.7-1.7c0-.66-.38-1.23-.93-1.51v-9.99h-8.1ZM417.59,97.3c-.25,0-.46-.2-.46-.46s.2-.46.46-.46.46.2.46.46-.2.46-.46.46Z"></path>
            <path class="cls-4" d="M402.2,85.35c-.22-.59-.78-1.02-1.45-1.02-.86,0-1.56.7-1.56,1.56s.7,1.56,1.56,1.56c.6,0,1.12-.35,1.38-.85h3.88l3.46,3.46h5.46c.34,0,.62-.28.62-.62s-.28-.62-.62-.62h-4.95l-3.46-3.46h-4.32Z"></path>
            <path class="cls-4" d="M403.85,97.09c-.34,0-.62.28-.62.62s.28.62.62.62h11.05v-4.48c.6-.26,1.03-.86,1.03-1.56,0-.94-.76-1.7-1.7-1.7s-1.7.76-1.7,1.7c0,.73.47,1.36,1.13,1.59v3.2h-9.8ZM414.23,91.83c.25,0,.46.2.46.46s-.2.46-.46.46-.46-.2-.46-.46.2-.46.46-.46Z"></path>
            <path class="cls-4" d="M377.57,88.9c-.29-.18-.68-.09-.85.2-.18.29-.09.67.2.85,3.19,1.96,5.82,4.74,7.62,8.05l.18.32h12.66c.27.47.77.79,1.35.79.86,0,1.56-.7,1.56-1.56s-.7-1.56-1.56-1.56c-.69,0-1.27.45-1.47,1.07h-11.8c-1.89-3.35-4.61-6.18-7.88-8.19Z"></path>
            <path class="cls-4" d="M312.93,85.35v16.43h32.34c.34,0,.62-.28.62-.62s-.28-.62-.62-.62h-31.09v-13.95h14.69l2.21,2.21h-14.69v9.52h10.55c.26.49.77.83,1.37.83.86,0,1.56-.7,1.56-1.56s-.7-1.56-1.56-1.56c-.68,0-1.25.43-1.46,1.04h-9.22v-7.04h16.44l-4.7-4.7h-16.44Z"></path>
            <path class="cls-4" d="M345.85,97.09l-.23.41,3.49,3.49.39-.77c2.52-5.04,7.33-8.66,12.86-9.69.34-.06.56-.39.5-.72-.06-.34-.39-.56-.72-.5-5.63,1.04-10.56,4.6-13.34,9.6l-1.62-1.62c1.61-2.71,3.81-5.05,6.4-6.81.26.16.56.25.88.25.94,0,1.7-.76,1.7-1.7s-.76-1.7-1.7-1.7-1.7.76-1.7,1.7c0,.16.03.31.07.45-2.85,1.95-5.26,4.57-6.97,7.6ZM354.45,88.58c.25,0,.46.2.46.46s-.2.46-.46.46-.46-.2-.46-.46.2-.46.46-.46Z"></path>
            <path class="cls-4" d="M377.61,119.18c-.72,1.03-1.58,1.96-2.55,2.77l-.25.21,1.41,13.34c.03.32.3.56.62.56.02,0,.04,0,.07,0,.34-.04.59-.34.55-.68l-1.34-12.69c.95-.83,1.79-1.76,2.51-2.79.2-.28.13-.67-.15-.87-.28-.2-.67-.13-.87.15Z"></path>
            <path class="cls-4" d="M397.53,120.76c0-.34-.28-.62-.62-.62h-15.8l-.18.29c-.45.72-.96,1.4-1.52,2.05-.14-.04-.29-.07-.44-.07-.86,0-1.56.7-1.56,1.56s.7,1.56,1.56,1.56,1.56-.7,1.56-1.56c0-.25-.06-.48-.17-.69.51-.6,1-1.24,1.43-1.9h15.12c.34,0,.62-.28.62-.62Z"></path>
            <path class="cls-4" d="M412.7,116.71c-.23-.67-.86-1.16-1.6-1.16-.94,0-1.7.76-1.7,1.7s.76,1.7,1.7,1.7c.71,0,1.31-.43,1.57-1.05.05.01.1.03.16.03h7.74v5.14l-3.46,3.46v8.82h-20.96c-.34,0-.62.28-.62.62s.28.62.62.62h22.21v-9.55l3.46-3.46v-6.89h-8.98s-.08.02-.12.03ZM411.1,117.7c-.25,0-.46-.2-.46-.46s.2-.46.46-.46.46.2.46.46-.2.46-.46.46Z"></path>
            <path class="cls-4" d="M327.59,35.65h7.68l.16-.37c2.48-5.71,6.6-10.47,11.89-13.76.29-.18.38-.56.2-.86-.18-.29-.56-.38-.86-.2-5.39,3.35-9.61,8.17-12.21,13.95h-5.1c.63-1.62,1.38-3.2,2.23-4.72.11.02.22.03.33.03.94,0,1.7-.76,1.7-1.7s-.76-1.7-1.7-1.7-1.7.76-1.7,1.7c0,.37.12.71.32.99-1.05,1.86-1.95,3.81-2.67,5.81l-.3.83ZM331.93,27.57c.25,0,.46.2.46.46s-.2.46-.46.46-.46-.2-.46-.46.2-.46.46-.46Z"></path>
            <path class="cls-4" d="M395.51,21.41l-.46-.49c-3.8-3.81-8.46-6.84-13.46-8.74-.32-.12-.68.04-.8.36-.12.32.04.68.36.8,4.67,1.78,9.03,4.57,12.65,8.1l-2.14,2.14.42.44c1.84,1.92,3.43,4.05,4.76,6.33-.16.25-.26.54-.26.86,0,.86.7,1.56,1.56,1.56s1.56-.7,1.56-1.56-.7-1.56-1.56-1.56c-.08,0-.17.01-.25.03-1.27-2.17-2.77-4.22-4.49-6.08l1.73-1.72.39-.46Z"></path>
            <path class="cls-4" d="M331.65,49.94v16.86c0,.34.28.62.62.62s.62-.28.62-.62v-16.86c0-.4,0-.81.02-1.21.01-.32.03-.65.05-.97l.05-.67h-4.14c-.26-.5-.77-.84-1.38-.84-.86,0-1.56.7-1.56,1.56s.7,1.56,1.56,1.56c.67,0,1.24-.43,1.46-1.02h2.73c0,.11-.01.23-.02.34-.02.42-.03.84-.03,1.26Z"></path>
            <path class="cls-4" d="M326.32,59.23c-.34,0-.62.28-.62.62v7.06h4.15v-13.55c.63-.25,1.07-.86,1.07-1.57,0-.94-.76-1.7-1.7-1.7s-1.7.76-1.7,1.7c0,.72.45,1.33,1.08,1.58v12.3h-1.66v-5.82c0-.34-.28-.62-.62-.62ZM329.22,51.33c.25,0,.46.2.46.46s-.2.46-.46.46-.46-.2-.46-.46.2-.46.46-.46Z"></path>
            <path class="cls-4" d="M398.89,53.27c-.57.23-.97.79-.97,1.44,0,.86.7,1.56,1.56,1.56s1.56-.7,1.56-1.56c0-.62-.37-1.16-.9-1.4v-1.04h1.81v3.8c0,.34.28.62.62.62s.62-.28.62-.62v-5.04h-4.29v2.24Z"></path>
            <path class="cls-4" d="M400.13,60.16h1.81v6.06c0,.34.28.62.62.62s.62-.28.62-.62v-7.3h-4.29v11.54h4.95c.21.61.78,1.04,1.46,1.04.86,0,1.56-.7,1.56-1.56s-.7-1.56-1.56-1.56c-.59,0-1.1.34-1.37.83h-3.8v-9.05Z"></path>
            <path class="cls-4" d="M343.21,92.98h-5.61c-.26-.5-.77-.84-1.37-.84-.86,0-1.56.7-1.56,1.56s.7,1.56,1.56,1.56c.67,0,1.24-.43,1.46-1.03h5.52c.34,0,.62-.28.62-.62s-.28-.62-.62-.62Z"></path>
            <path class="cls-4" d="M347.75,133.13s.04,0,.07,0c.31,0,.58-.24.62-.56l.83-7.82-.17-.2c-.19-.23-.38-.47-.56-.71l-.19-.24h-13.58c-.23-.57-.79-.97-1.44-.97-.86,0-1.56.7-1.56,1.56s.7,1.56,1.56,1.56c.62,0,1.16-.37,1.41-.9h13c.08.1.16.2.24.3l-.77,7.3c-.04.34.21.65.55.68Z"></path>
            <path class="cls-4" d="M344.51,129.06c.34,0,.62-.28.62-.62s-.28-.62-.62-.62h-23.54l-5.31,5.31h8.35c.28.57.85.96,1.52.96.94,0,1.7-.76,1.7-1.7s-.76-1.7-1.7-1.7c-.76,0-1.4.5-1.61,1.19h-5.26l2.83-2.83h23.02ZM325.53,131.94c.25,0,.46.2.46.46s-.2.46-.46.46-.46-.2-.46-.46.2-.46.46-.46Z"></path>
            <path class="cls-4" d="M390.91,124.22c0-.34-.28-.62-.62-.62h-6.1l-.19.24c-.04.06-.09.11-.13.17l-.44.56,4.49,4.49h6.79c.24.54.78.91,1.41.91.86,0,1.56-.7,1.56-1.56s-.7-1.56-1.56-1.56c-.65,0-1.2.39-1.43.95h-6.25l-2.98-2.98h4.84c.34,0,.62-.28.62-.62Z"></path>
            <path class="cls-4" d="M408.08,129.06c.24.54.78.91,1.41.91.86,0,1.56-.7,1.56-1.56s-.7-1.56-1.56-1.56c-.65,0-1.2.39-1.43.95h-5.6l-5.31,5.31h17.75v-4.86c0-.34-.28-.62-.62-.62s-.62.28-.62.62v3.62h-13.51l2.83-2.83h5.11Z"></path>
            <path class="cls-4" d="M416.22,163.89c.34,0,.62-.28.62-.62s-.28-.62-.62-.62h-16.94l-2.82-2.82h14.84c.29.5.84.85,1.46.85.94,0,1.7-.76,1.7-1.7s-.76-1.7-1.7-1.7c-.8,0-1.47.56-1.65,1.31h-17.65l5.31,5.31h17.46ZM412.76,158.52c.25,0,.46.2.46.46s-.2.46-.46.46c-.16,0-.29-.08-.37-.2,0,0,0-.02,0-.03,0-.11-.03-.2-.08-.29.03-.22.21-.4.44-.4Z"></path>
            <path class="cls-4" d="M351,159.83h5.16c.23.56.79.96,1.44.96.86,0,1.56-.7,1.56-1.56s-.7-1.56-1.56-1.56c-.63,0-1.17.37-1.41.91h-5.7l-4.07,4.07h-20.68c-.34,0-.62.28-.62.62s.28.62.62.62h21.2l4.07-4.07Z"></path>
            <path class="cls-4" d="M389.32,22.35c.94,0,1.7-.76,1.7-1.7s-.76-1.7-1.7-1.7c-.31,0-.6.09-.86.24-2.71-1.99-5.67-3.58-8.81-4.72v-2.99l-.44-.13c-2.82-.86-5.72-1.39-8.62-1.57-.34-.02-.64.24-.66.58-.02.34.24.64.58.66,2.66.16,5.31.63,7.9,1.39v2.95l.42.14c3.17,1.1,6.15,2.67,8.87,4.67-.05.15-.08.31-.08.48,0,.94.76,1.7,1.7,1.7ZM389.77,20.65c0,.25-.2.46-.46.46s-.46-.2-.46-.46.2-.46.46-.46.46.2.46.46Z"></path>
            <path class="cls-4" d="M364.8,14.75c.94,0,1.7-.76,1.7-1.7s-.76-1.7-1.7-1.7c-.73,0-1.34.46-1.58,1.1-12.27.16-23.61,6.93-29.68,17.76-.17.3-.06.68.24.85.1.05.2.08.3.08.22,0,.43-.11.54-.32,5.85-10.44,16.78-16.97,28.61-17.12.25.62.86,1.05,1.57,1.05ZM364.8,12.59c.25,0,.46.2.46.46s-.2.46-.46.46-.46-.2-.46-.46.2-.46.46-.46Z"></path>
            <path class="cls-4" d="M362.52,160.9c.71,0,1.33-.45,1.58-1.07h27.11l-4.88-4.88h-14.47c-.34,0-.62.28-.62.62s.28.62.62.62h13.96l2.4,2.4h-24.11c-.25-.63-.86-1.08-1.58-1.08-.94,0-1.7.76-1.7,1.7s.76,1.7,1.7,1.7ZM362.52,158.74c.25,0,.46.2.46.46s-.2.46-.46.46-.46-.2-.46-.46.2-.46.46-.46Z"></path>
            <path class="cls-4" d="M340.38,150.34c-.94,0-1.7.76-1.7,1.7s.76,1.7,1.7,1.7c.69,0,1.28-.42,1.55-1.01h28.09c.34,0,.62-.28.62-.62s-.28-.62-.62-.62h-28.04c-.23-.66-.86-1.15-1.6-1.15ZM340.38,152.5c-.25,0-.46-.2-.46-.46s.2-.46.46-.46.46.2.46.46-.2.46-.46.46Z"></path>
            <path class="cls-4" d="M420.85,106.36c.94,0,1.7-.76,1.7-1.7s-.76-1.7-1.7-1.7c-.7,0-1.31.43-1.56,1.04h-19.3l-3.46-3.46h-7.99c-.23-.67-.86-1.16-1.6-1.16-.94,0-1.7.76-1.7,1.7s.76,1.7,1.7,1.7c.68,0,1.27-.41,1.54-.99h7.54l3.46,3.46h19.78c.24.65.86,1.12,1.59,1.12ZM386.94,101.54c-.25,0-.46-.2-.46-.46s.2-.46.46-.46.46.2.46.46-.2.46-.46.46ZM420.85,104.2c.25,0,.46.2.46.46s-.2.46-.46.46-.46-.2-.46-.46.2-.46.46-.46Z"></path>
            <path class="cls-4" d="M402.84,99.63c-.86,0-1.56.7-1.56,1.56s.7,1.56,1.56,1.56c.65,0,1.2-.39,1.43-.95h13.46c.34,0,.62-.28.62-.62s-.28-.62-.62-.62h-13.48c-.24-.54-.78-.91-1.41-.91Z"></path>
            <path class="cls-4" d="M348.7,141.04c.66,0,1.22-.41,1.45-1h4.45l1.42-13.45c.04-.34-.21-.65-.55-.68-.34-.04-.65.21-.68.55l-1.3,12.34h-3.38c-.25-.52-.78-.87-1.39-.87-.86,0-1.56.7-1.56,1.56s.7,1.56,1.56,1.56Z"></path>
            <path class="cls-4" d="M388.74,82.52c0-.34-.28-.62-.62-.62h-24.01c-.24-.64-.86-1.1-1.58-1.1-.94,0-1.7.76-1.7,1.7s.76,1.7,1.7,1.7c.71,0,1.32-.44,1.57-1.06h24.03c.34,0,.62-.28.62-.62ZM362.53,82.95c-.25,0-.46-.2-.46-.46s.2-.46.46-.46.46.2.46.46-.2.46-.46.46Z"></path>
            <path class="cls-4" d="M377.75,98.12c-.22-.26-.61-.3-.87-.07-.26.22-.3.61-.07.87,1.43,1.7,2.48,3.72,3.01,5.86l.12.47h13.27c.27.59.86,1.01,1.55,1.01.94,0,1.7-.76,1.7-1.7s-.76-1.7-1.7-1.7c-.74,0-1.37.48-1.6,1.15h-12.26c-.61-2.14-1.69-4.17-3.14-5.88ZM394.75,104.09c.25,0,.46.2.46.46s-.2.46-.46.46-.46-.2-.46-.46.2-.46.46-.46Z"></path>
            <path class="cls-4" d="M313.26,105.24h22.84c.29.52.84.87,1.47.87.94,0,1.7-.76,1.7-1.7s-.76-1.7-1.7-1.7c-.79,0-1.46.55-1.64,1.29h-22.67c-.34,0-.62.28-.62.62s.28.62.62.62ZM337.57,103.95c.25,0,.46.2.46.46s-.2.46-.46.46-.46-.2-.46-.46.2-.46.46-.46Z"></path>
            <path class="cls-4" d="M377.57,88.9c-.29-.18-.68-.09-.85.2-.18.29-.09.67.2.85,3.19,1.96,5.82,4.74,7.62,8.05l.18.32h12.66c.27.47.77.79,1.35.79.86,0,1.56-.7,1.56-1.56s-.7-1.56-1.56-1.56c-.69,0-1.27.45-1.47,1.07h-11.8c-1.89-3.35-4.61-6.18-7.88-8.19Z"></path>
            <path class="cls-4" d="M345.85,97.09l-.23.41,3.49,3.49.39-.77c2.52-5.04,7.33-8.66,12.86-9.69.34-.06.56-.39.5-.72-.06-.34-.39-.56-.72-.5-5.63,1.04-10.56,4.6-13.34,9.6l-1.62-1.62c1.61-2.71,3.81-5.05,6.4-6.81.26.16.56.25.88.25.94,0,1.7-.76,1.7-1.7s-.76-1.7-1.7-1.7-1.7.76-1.7,1.7c0,.16.03.31.07.45-2.85,1.95-5.26,4.57-6.97,7.6ZM354.45,88.58c.25,0,.46.2.46.46s-.2.46-.46.46-.46-.2-.46-.46.2-.46.46-.46Z"></path>
          </g>
          <g>
            <g class="cls-9">
              <path class="cls-5" d="M392.68,169.56h-31.6c-.24-.65-.86-1.11-1.59-1.11-.94,0-1.7.76-1.7,1.7s.76,1.7,1.7,1.7c.7,0,1.31-.43,1.57-1.04h31.63c.34,0,.62-.28.62-.62s-.28-.62-.62-.62ZM359.49,170.61c-.25,0-.46-.2-.46-.46s.2-.46.46-.46.46.2.46.46-.2.46-.46.46Z"></path>
              <path class="cls-5" d="M425.27,120.55v-7.32h-18.05c-.34,0-.62.28-.62.62s.28.62.62.62h16.81v6.18c-.49.26-.83.77-.83,1.37,0,.86.7,1.56,1.56,1.56s1.56-.7,1.56-1.56c0-.68-.44-1.25-1.04-1.46Z"></path>
              <path class="cls-5" d="M421.81,164.58v-16.55h-11.01c-.28-.56-.85-.95-1.52-.95-.94,0-1.7.76-1.7,1.7s.76,1.7,1.7,1.7c.76,0,1.4-.51,1.62-1.2h9.67v12.31l-2.21-2.21v-4.43h-26.44c-.34,0-.62.28-.62.62s.28.62.62.62h25.2v3.7l4.7,4.7ZM409.29,149.23c-.25,0-.46-.2-.46-.46s.2-.46.46-.46.46.2.46.46-.2.46-.46.46Z"></path>
              <path class="cls-5" d="M358.55,129.64s.04,0,.07,0c.31,0,.58-.24.62-.56l.91-8.6-.33-.21c-2.38-1.47-4.1-3.73-4.87-6.39.49-.3.83-.83.83-1.45,0-.94-.76-1.7-1.7-1.7s-1.7.76-1.7,1.7c0,.81.57,1.49,1.33,1.65.8,2.89,2.61,5.37,5.12,7.03l-.83,7.83c-.04.34.21.65.55.68ZM354.06,111.98c.25,0,.46.2.46.46s-.2.46-.46.46-.46-.2-.46-.46.2-.46.46-.46Z"></path>
              <path class="cls-5" d="M310.72,122.3c.71-.21,1.24-.85,1.24-1.62,0-.94-.78-1.7-1.73-1.7s-1.73.76-1.73,1.7c0,.67.4,1.25.98,1.52v16.95l-2.21,2.21v-23.45h7.09c.34,0,.62-.28.62-.62s-.28-.62-.62-.62h-8.33v27.69l4.7-4.7v-17.37ZM310.22,120.23c.27,0,.49.2.49.46s-.22.46-.49.46-.49-.2-.49-.46.22-.46.49-.46Z"></path>
              <path class="cls-5" d="M315.6,113.23h-7.08c-.18-.75-.86-1.3-1.68-1.3-.96,0-1.73.76-1.73,1.7s.78,1.7,1.73,1.7c.65,0,1.21-.36,1.51-.88.05.01.09.03.15.03h6.59l3.46,3.46h18.11l3.46-3.46h10.27c.34,0,.62-.28.62-.62s-.28-.62-.62-.62h-10.78l-3.46,3.46h-17.08l-3.46-3.46ZM306.83,114.08c-.27,0-.49-.2-.49-.46s.22-.46.49-.46.49.2.49.46-.22.46-.49.46Z"></path>
              <path class="cls-5" d="M352.86,123.55l-.2-.21c-.58-.6-1.12-1.24-1.61-1.91.11-.22.19-.46.19-.72,0-.86-.7-1.56-1.56-1.56s-1.56.7-1.56,1.56.7,1.56,1.56,1.56c.14,0,.27-.02.4-.06.46.62.95,1.23,1.49,1.79l-1.2,11.34h-16.71c-.34,0-.62.28-.62.62s.28.62.62.62h17.83l1.38-13.03Z"></path>
              <path class="cls-5" d="M335.22,152.73l3.46-3.46h14.44c.29.52.84.88,1.48.88.94,0,1.7-.76,1.7-1.7s-.76-1.7-1.7-1.7c-.79,0-1.45.54-1.64,1.27h-14.8l-3.46,3.46h-28.68c-.34,0-.62.28-.62.62s.28.62.62.62h29.2ZM354.6,148c.25,0,.46.2.46.46s-.2.46-.46.46-.46-.2-.46-.46.2-.46.46-.46Z"></path>
              <path class="cls-5" d="M393.36,152.11c0,.34.28.62.62.62h24.63c.34,0,.62-.28.62-.62s-.28-.62-.62-.62h-11.19s-.04-.08-.08-.12l-3.34-3.34h-25.25c-.16-.69-.77-1.21-1.51-1.21-.86,0-1.56.7-1.56,1.56s.7,1.56,1.56,1.56c.53,0,.99-.26,1.27-.66h24.98l2.21,2.21h-11.72c-.34,0-.62.28-.62.62Z"></path>
              <path class="cls-5" d="M358.05,166.11h-20.2l-3.46,3.46h-14.84c-.34,0-.62.28-.62.62s.28.62.62.62h15.35l3.46-3.46h16.68l-2.22,2.21h-11.54c-.26-.49-.77-.82-1.36-.82-.86,0-1.56.7-1.56,1.56s.7,1.56,1.56,1.56c.68,0,1.25-.44,1.46-1.05h11.96l4.72-4.7Z"></path>
              <path class="cls-5" d="M413.16,166.11c-.24-.65-.86-1.13-1.59-1.13-.94,0-1.7.76-1.7,1.7s.76,1.7,1.7,1.7c.7,0,1.3-.42,1.56-1.03h7.81l2.21,2.21h-25.66l-2.21-2.21h11.18c.34,0,.62-.28.62-.62s-.28-.62-.62-.62h-14.18l4.7,4.7h29.17s-4.7-4.7-4.7-4.7h-8.29ZM411.56,167.13c-.25,0-.46-.2-.46-.46s.2-.46.46-.46.46.2.46.46-.2.46-.46.46Z"></path>
              <path class="cls-5" d="M360.6,166.73c0,.34.28.62.62.62h25.46c.26.6.86,1.03,1.56,1.03.94,0,1.7-.76,1.7-1.7s-.76-1.7-1.7-1.7c-.73,0-1.36.47-1.59,1.13h-11.55s-.04-.07-.07-.11l-3.35-3.35h-20.22c-.34,0-.62.28-.62.62s.28.62.62.62h19.71l2.21,2.21h-12.16c-.34,0-.62.28-.62.62ZM388.24,166.22c.25,0,.46.2.46.46s-.2.46-.46.46-.46-.2-.46-.46.2-.46.46-.46Z"></path>
              <path class="cls-5" d="M336.49,47.24c.03-.34-.21-.65-.56-.68-.34-.03-.65.21-.68.56-.09.93-.14,1.88-.14,2.82v16.29c-.69.22-1.19.85-1.19,1.61,0,.94.76,1.7,1.7,1.7s1.7-.76,1.7-1.7c0-.67-.4-1.25-.96-1.52v-16.38c0-.9.05-1.81.13-2.69ZM335.62,68.3c-.25,0-.46-.2-.46-.46s.2-.46.46-.46.46.2.46.46-.2.46-.46.46Z"></path>
              <path class="cls-5" d="M410.33,108.08c0-.34-.28-.62-.62-.62h-30.38c-.23-.58-.79-.99-1.45-.99-.86,0-1.56.7-1.56,1.56s.7,1.56,1.56,1.56c.61,0,1.14-.36,1.39-.88h30.43c.34,0,.62-.28.62-.62Z"></path>
              <path class="cls-5" d="M357.99,81.89h-6.54c-.34,0-.62.28-.62.62s.28.62.62.62h7.78v-3.46h29.35c.24.54.79.93,1.42.93.86,0,1.56-.7,1.56-1.56s-.7-1.56-1.56-1.56c-.64,0-1.19.39-1.43.94h-30.58v3.46Z"></path>
              <path class="cls-5" d="M391.3,83.14h23.42c.24.55.79.94,1.43.94.86,0,1.56-.7,1.56-1.56s-.7-1.56-1.56-1.56c-.63,0-1.18.38-1.42.93h-20.43l2.21-2.21h23.72c.34,0,.62-.28.62-.62s-.28-.62-.62-.62h-24.23l-4.7,4.7Z"></path>
              <path class="cls-5" d="M420.57,82.26v17.37c0,.34.28.62.62.62s.62-.28.62-.62v-16.86l1.7-1.7c.19.07.38.11.59.11.94,0,1.7-.76,1.7-1.7s-.76-1.7-1.7-1.7-1.7.76-1.7,1.7c0,.27.07.52.18.75l-2.02,2.02ZM424.1,79.03c.25,0,.46.2.46.46s-.2.46-.46.46-.46-.2-.46-.46.2-.46.46-.46Z"></path>
              <path class="cls-5" d="M396.34,85.97c0-.34-.28-.62-.62-.62h-21.04c-.26-.62-.86-1.05-1.57-1.05-.94,0-1.7.76-1.7,1.7s.76,1.7,1.7,1.7c.73,0,1.34-.46,1.59-1.1h4.21s.03.05.05.08l3.38,3.38h22.61c.34,0,.62-.28.62-.62s-.28-.62-.62-.62h-22.09l-2.21-2.21h15.09c.34,0,.62-.28.62-.62ZM373.11,86.46c-.25,0-.46-.2-.46-.46s.2-.46.46-.46.46.2.46.46-.2.46-.46.46Z"></path>
              <path class="cls-5" d="M333.03,85.35l4.7,4.7h9.49c.34,0,.62-.28.62-.62s-.28-.62-.62-.62h-8.98l-2.21-2.21h5.57c.27.44.76.74,1.32.74.86,0,1.56-.7,1.56-1.56s-.7-1.56-1.56-1.56c-.71,0-1.3.48-1.49,1.13h-8.4Z"></path>
              <path class="cls-5" d="M365.02,88.99v3.48c-1.74.07-3.44.41-5.07,1.05-.32.12-.48.49-.35.8.13.32.48.48.8.35,1.68-.66,3.44-.99,5.24-.99,3.06,0,6,.96,8.5,2.77.11.08.24.12.36.12.19,0,.38-.09.5-.26.2-.28.14-.67-.14-.87-2.54-1.84-5.51-2.85-8.61-2.98v-2.23c6.38.21,12.07,3.72,15.16,9.3-.26.28-.43.65-.43,1.06,0,.86.7,1.56,1.56,1.56s1.56-.7,1.56-1.56-.69-1.54-1.54-1.55c-3.39-6.22-9.79-10.06-16.93-10.06h-.62Z"></path>
              <path class="cls-5" d="M397.86,139.42c0-.34-.28-.62-.62-.62h-13.47c-.15-.06-.33-.06-.48,0h-4.42c-.23-.67-.86-1.15-1.6-1.15-.94,0-1.7.76-1.7,1.7s.76,1.7,1.7,1.7c.69,0,1.28-.41,1.54-1h4.51l3.46,3.46h21.74c.34,0,.62-.28.62-.62s-.28-.62-.62-.62h-21.22l-2.21-2.21h12.16c.34,0,.62-.28.62-.62ZM377.27,139.8c-.25,0-.46-.2-.46-.46s.2-.46.46-.46.46.2.46.46-.2.46-.46.46Z"></path>
              <path class="cls-5" d="M425.41,142.88c0-.34-.28-.62-.62-.62h-11.04l-3.46-3.46h-7.28c-.2-.63-.78-1.09-1.48-1.09-.86,0-1.56.7-1.56,1.56s.7,1.56,1.56,1.56c.57,0,1.07-.32,1.34-.78h6.9l3.46,3.46h11.56c.34,0,.62-.28.62-.62Z"></path>
              <path class="cls-5" d="M424.65,140.61c.34,0,.62-.28.62-.62v-14.5l-4.7,4.7v8.62h-2.96c-.23-.67-.86-1.15-1.6-1.15-.94,0-1.7.76-1.7,1.7s.76,1.7,1.7,1.7c.69,0,1.28-.41,1.54-1h4.25v-9.34l2.21-2.21v11.51c0,.34.28.62.62.62ZM416.01,139.8c-.25,0-.46-.2-.46-.46s.2-.46.46-.46.46.2.46.46-.2.46-.46.46Z"></path>
              <path class="cls-5" d="M389.67,113.23l-3.46,3.46h-6.8c-.34,0-.62.28-.62.62s.28.62.62.62h7.32l3.46-3.46h11.78l2.21,2.21h-10.55c-.23-.66-.86-1.14-1.6-1.14-.94,0-1.7.76-1.7,1.7s.76,1.7,1.7,1.7c.69,0,1.29-.42,1.55-1.02h13.59l-4.7-4.7h-12.81ZM392.04,117.7c-.25,0-.46-.2-.46-.46s.2-.46.46-.46.46.2.46.46-.2.46-.46.46Z"></path>
              <path class="cls-5" d="M324.7,35.38c.06.02.13.03.19.03.26,0,.5-.17.59-.43,1.37-4.17,3.42-8.06,6.09-11.59l2.48,2.48.43-.56c2.6-3.38,5.74-6.24,9.32-8.54.24.16.53.25.84.25.86,0,1.56-.7,1.56-1.56s-.7-1.56-1.56-1.56-1.56.7-1.56,1.56c0,.09.01.18.03.27-3.5,2.25-6.58,5.02-9.18,8.27l-2.48-2.48-.43.55c-2.97,3.78-5.23,8-6.72,12.52-.11.33.07.68.4.78Z"></path>
              <path class="cls-5" d="M397.62,25.78c1.99,2.66,3.59,5.56,4.78,8.63h-5.1c-1.98-4.38-4.96-8.31-8.66-11.39-.26-.22-.66-.18-.87.08-.22.26-.18.66.08.87,3.65,3.04,6.59,6.95,8.48,11.3l.16.37h7.68l-.3-.83c-1.19-3.32-2.85-6.46-4.94-9.35l1.6-1.6c2.92,3.97,5.03,8.35,6.32,13.05-.37.28-.61.73-.61,1.23,0,.86.7,1.56,1.56,1.56s1.56-.7,1.56-1.56c0-.77-.56-1.41-1.3-1.53-1.39-5.09-3.72-9.82-6.96-14.07l-.43-.57-3.37,3.37.32.43Z"></path>
              <path class="cls-5" d="M369.95,7.53c10.03.4,19.37,4.5,26.49,11.58-.11.21-.17.45-.17.7,0,.86.7,1.56,1.56,1.56s1.56-.7,1.56-1.56-.7-1.56-1.56-1.56c-.15,0-.28.03-.42.06-7.35-7.35-17.01-11.61-27.4-12.03-.34-.02-.63.25-.65.6-.01.34.25.63.6.65Z"></path>
              <path class="cls-5" d="M353.3,22.34c3.23-1.31,6.64-1.97,10.14-1.97h3.04c.24.64.86,1.11,1.59,1.11.94,0,1.7-.76,1.7-1.7s-.76-1.7-1.7-1.7c-.71,0-1.31.43-1.57,1.05h-3.05c-3.52,0-6.95.64-10.22,1.91l-1.7-1.7c3.78-1.61,7.79-2.43,11.92-2.43.34,0,.62-.28.62-.62s-.28-.62-.62-.62c-4.61,0-9.07.98-13.26,2.9l-.81.37,3.55,3.55.38-.15ZM368.06,19.32c.25,0,.46.2.46.46s-.2.46-.46.46-.46-.2-.46-.46.2-.46.46-.46Z"></path>
              <path class="cls-5" d="M384.13,21.33l-1.62,1.62c-3.27-1.9-6.82-3.11-10.57-3.59-.34-.04-.65.2-.69.54-.04.34.2.65.54.69,3.74.48,7.27,1.71,10.51,3.67l.42.25,3.4-3.4-.65-.42c-4.95-3.17-10.65-4.9-16.52-5.02v-1.97c1.38.04,2.77.16,4.14.37.16.69.77,1.21,1.52,1.21.86,0,1.56-.7,1.56-1.56s-.7-1.56-1.56-1.56c-.53,0-1,.27-1.28.68-1.65-.26-3.32-.4-4.98-.41h-.63s0,4.46,0,4.46h.62c5.59,0,11.04,1.53,15.81,4.42Z"></path>
              <path class="cls-5" d="M396.65,65.29c0-.34-.28-.62-.62-.62s-.62.28-.62.62v8.62h11.82c.24.56.79.95,1.43.95.86,0,1.56-.7,1.56-1.56s-.7-1.56-1.56-1.56c-.63,0-1.17.38-1.42.92h-10.6v-7.37Z"></path>
              <path class="cls-5" d="M405.47,50.84c-.34,0-.62.28-.62.62v12.5c-.68.22-1.17.85-1.17,1.6,0,.94.76,1.7,1.7,1.7s1.7-.76,1.7-1.7c0-.68-.41-1.27-.99-1.54v-7.34h2.19v13.59c0,.34.28.62.62.62s.62-.28.62-.62v-14.83h-3.43v-3.99c0-.34-.28-.62-.62-.62ZM405.38,66.02c-.25,0-.46-.2-.46-.46s.2-.46.46-.46.46.2.46.46-.2.46-.46.46Z"></path>
              <path class="cls-5" d="M409.52,49.94c0-.76-.02-1.54-.07-2.31-.02-.34-.32-.6-.66-.58-.34.02-.6.31-.58.66.04.74.06,1.49.06,2.23v.76c-.71.2-1.23.85-1.23,1.63,0,.94.76,1.7,1.7,1.7s1.7-.76,1.7-1.7c0-.65-.38-1.22-.92-1.5v-.89ZM408.74,52.78c-.25,0-.46-.2-.46-.46s.2-.46.46-.46.46.2.46.46-.2.46-.46.46Z"></path>
              <path class="cls-5" d="M409.93,92.98h-20.49c-.27-.58-.85-.98-1.53-.98-.94,0-1.7.76-1.7,1.7s.76,1.7,1.7,1.7c.75,0,1.39-.5,1.61-1.18h20.41c.34,0,.62-.28.62-.62s-.28-.62-.62-.62ZM387.91,94.16c-.25,0-.46-.2-.46-.46s.2-.46.46-.46.46.2.46.46-.2.46-.46.46Z"></path>
              <path class="cls-5" d="M343.21,97.09h-9.07l-4.11-4.11h-7.5c-.26-.6-.86-1.02-1.55-1.02-.94,0-1.7.76-1.7,1.7s.76,1.7,1.7,1.7c.74,0,1.36-.48,1.6-1.14h6.94l4.11,4.11h9.59c.34,0,.62-.28.62-.62s-.28-.62-.62-.62ZM320.97,94.12c-.25,0-.46-.2-.46-.46s.2-.46.46-.46.46.2.46.46-.2.46-.46.46Z"></path>
              <path class="cls-5" d="M312.93,132.11l4.81-4.66v-2.61h9.1c.27.6.88,1.01,1.58,1.01.96,0,1.73-.76,1.73-1.7s-.78-1.7-1.73-1.7c-.75,0-1.39.48-1.63,1.14h-10.3v3.32l-2.33,2.25v-4.96c0-.34-.28-.62-.62-.62s-.62.28-.62.62v7.89ZM328.42,123.7c.27,0,.49.2.49.46s-.22.46-.49.46-.49-.2-.49-.46.22-.46.49-.46Z"></path>
              <path class="cls-5" d="M313.55,136.59h14.52l3.46-3.46h10.16c.28.57.85.96,1.52.96.94,0,1.7-.76,1.7-1.7s-.76-1.7-1.7-1.7c-.76,0-1.4.5-1.61,1.19h-10.59l-3.46,3.46h-14.01c-.34,0-.62.28-.62.62s.28.62.62.62ZM343.21,131.94c.25,0,.46.2.46.46s-.2.46-.46.46-.46-.2-.46-.46.2-.46.46-.46Z"></path>
              <path class="cls-5" d="M382.86,132.57c.04.34.35.59.68.55.34-.04.59-.34.55-.68l-.49-4.7h-4.72l.93,8.84h11.29l4.7-4.7h-6.2c-.26-.61-.86-1.04-1.57-1.04-.94,0-1.7.76-1.7,1.7s.76,1.7,1.7,1.7c.73,0,1.35-.46,1.59-1.11h3.18l-2.21,2.21h-9.66l-.67-6.36h2.23l.38,3.59ZM388.02,133c-.25,0-.46-.2-.46-.46s.2-.46.46-.46.46.2.46.46-.2.46-.46.46Z"></path>
              <path class="cls-5" d="M399.76,120.76c0,.34.28.62.62.62h15.85l-2.21,2.21h-17.47c-.23-.66-.86-1.14-1.6-1.14-.94,0-1.7.76-1.7,1.7s.76,1.7,1.7,1.7c.69,0,1.29-.42,1.55-1.01h18.03l4.7-4.7h-18.85c-.34,0-.62.28-.62.62ZM394.96,124.61c-.25,0-.46-.2-.46-.46s.2-.46.46-.46.46.2.46.46-.2.46-.46.46Z"></path>
              <path class="cls-5" d="M395.04,163.27c0-.34-.28-.62-.62-.62h-15.24c-.17-.68-.78-1.18-1.5-1.18-.86,0-1.56.7-1.56,1.56s.7,1.56,1.56,1.56c.54,0,1.01-.27,1.29-.69h15.45c.34,0,.62-.28.62-.62Z"></path>
              <path class="cls-5" d="M306.65,80.72c.7,0,1.31-.43,1.57-1.04h14.99l3.46,3.46h14.16c.34,0,.62-.28.62-.62s-.28-.62-.62-.62h-13.65l-3.46-3.46h-15.48c-.24-.65-.86-1.11-1.59-1.11-.94,0-1.7.76-1.7,1.7s.76,1.7,1.7,1.7ZM306.65,78.57c.25,0,.46.2.46.46s-.2.46-.46.46-.46-.2-.46-.46.2-.46.46-.46Z"></path>
              <path class="cls-5" d="M320.32,84.19c.94,0,1.7-.76,1.7-1.7s-.76-1.7-1.7-1.7c-.72,0-1.34.46-1.58,1.1h-9.26v6.93c0,.34.28.62.62.62s.62-.28.62-.62v-5.69h8.03c.25.62.86,1.06,1.57,1.06ZM320.32,82.04c.25,0,.46.2.46.46s-.2.46-.46.46-.46-.2-.46-.46.2-.46.46-.46Z"></path>
              <path class="cls-5" d="M403.42,40.04c.94,0,1.7-.76,1.7-1.7s-.76-1.7-1.7-1.7c-.77,0-1.42.52-1.62,1.22h-6.83c-1.83-5.06-5.04-9.48-9.32-12.8-.27-.21-.66-.16-.87.11-.21.27-.16.66.11.87,4.21,3.26,7.34,7.64,9.06,12.64l.14.42h7.82c.28.55.85.93,1.51.93ZM403.42,37.88c.25,0,.46.2.46.46s-.2.46-.46.46-.46-.2-.46-.46.2-.46.46-.46Z"></path>
              <path class="cls-5" d="M334.42,20.83c.94,0,1.7-.76,1.7-1.7,0-.23-.05-.45-.13-.65,7.46-7.08,17.19-10.98,27.45-10.98h2.22v2.21h-2.22c-4.58,0-9.09.84-13.4,2.5-.32.12-.48.48-.36.8.12.32.48.48.8.36,4.17-1.61,8.52-2.42,12.95-2.42h3.46v-4.7h-3.46c-10.59,0-20.63,4.03-28.32,11.33-.21-.1-.45-.16-.7-.16-.94,0-1.7.76-1.7,1.7s.76,1.7,1.7,1.7ZM334.42,18.68c.25,0,.46.2.46.46s-.2.46-.46.46-.46-.2-.46-.46.2-.46.46-.46Z"></path>
              <path class="cls-5" d="M398.98,42.6c-.94,0-1.7.76-1.7,1.7s.76,1.7,1.7,1.7c.73,0,1.35-.47,1.59-1.12h6.09l-2.21,2.21h-5.23c-.34,0-.62.28-.62.62s.28.62.62.62h5.74l4.7-4.7h-9.11c-.26-.61-.86-1.04-1.56-1.04ZM398.98,44.75c-.25,0-.46-.2-.46-.46s.2-.46.46-.46.46.2.46.46-.2.46-.46.46Z"></path>
              <path class="cls-5" d="M396.65,59.65v-9.71c0-1.95-.2-3.9-.6-5.81-.07-.34-.4-.55-.73-.48-.34.07-.55.4-.48.74.38,1.82.57,3.69.57,5.55v9.54c-.73.19-1.28.85-1.28,1.64,0,.94.76,1.7,1.7,1.7s1.7-.76,1.7-1.7c0-.63-.35-1.18-.87-1.47ZM395.83,61.58c-.25,0-.46-.2-.46-.46s.2-.46.46-.46.46.2.46.46-.2.46-.46.46Z"></path>
              <path class="cls-5" d="M308.32,104.41c0,.94.76,1.7,1.7,1.7s1.7-.76,1.7-1.7c0-.68-.41-1.27-1-1.54v-9.2l-3.46-3.46v-7.24c0-.34-.28-.62-.62-.62s-.62.28-.62.62v7.76l3.46,3.46v8.62c-.67.23-1.16.86-1.16,1.6ZM310.01,104.87c-.25,0-.46-.2-.46-.46s.2-.46.46-.46.46.2.46.46-.2.46-.46.46Z"></path>
              <path class="cls-5" d="M327.05,109.8c.72,0,1.34-.46,1.58-1.1h25.85v-.61c.06-2.39.85-4.66,2.29-6.55.21-.27.16-.66-.12-.87-.27-.21-.66-.16-.87.12-1.48,1.95-2.35,4.24-2.51,6.67h-24.66c-.25-.62-.86-1.05-1.57-1.05-.94,0-1.7.76-1.7,1.7s.76,1.7,1.7,1.7ZM327.05,107.64c.25,0,.46.2.46.46s-.2.46-.46.46-.46-.2-.46-.46.2-.46.46-.46Z"></path>
              <path class="cls-5" d="M340.94,144.62c.73,0,1.35-.47,1.59-1.12h15.18l1.01-9.53c.04-.34-.21-.65-.55-.68-.34-.04-.65.21-.68.55l-.89,8.42h-14.09c-.26-.61-.86-1.04-1.56-1.04-.94,0-1.7.76-1.7,1.7s.76,1.7,1.7,1.7ZM340.94,142.46c.25,0,.46.2.46.46s-.2.46-.46.46-.46-.2-.46-.46.2-.46.46-.46Z"></path>
              <path class="cls-5" d="M367.07,157.21c.94,0,1.7-.76,1.7-1.7s-.76-1.7-1.7-1.7c-.74,0-1.36.47-1.59,1.13h-18.08l-3.64,3.64h-24.2c-.34,0-.62.28-.62.62s.28.62.62.62h24.72l3.64-3.64h17.61c.26.6.86,1.02,1.56,1.02ZM367.07,155.05c.25,0,.46.2.46.46s-.2.46-.46.46-.46-.2-.46-.46.2-.46.46-.46Z"></path>
              <path class="cls-5" d="M389.87,150.12c-.82,0-1.51.59-1.66,1.37h-12.62l-3.46-3.46h-13.62c-.34,0-.62.28-.62.62s.28.62.62.62h13.1l3.46,3.46h13.38c.3.47.83.78,1.43.78.94,0,1.7-.76,1.7-1.7s-.76-1.7-1.7-1.7ZM389.87,152.27c-.25,0-.46-.2-.46-.46s.2-.46.46-.46.46.2.46.46-.2.46-.46.46Z"></path>
              <path class="cls-5" d="M314.12,168.35c-.77,0-1.41.51-1.62,1.21h-5.24v-13.65h2.21v7.19c0,.34.28.62.62.62s.62-.28.62-.62v-8.43h-4.7v16.14h6.59c.28.56.85.94,1.51.94.94,0,1.7-.76,1.7-1.7s-.76-1.7-1.7-1.7ZM314.12,170.51c-.25,0-.46-.2-.46-.46s.2-.46.46-.46.46.2.46.46-.2.46-.46.46Z"></path>
              <path class="cls-5" d="M373.88,125.27c0-.94-.76-1.7-1.7-1.7s-1.7.76-1.7,1.7c0,.82.58,1.5,1.35,1.66l1.75,16.56h9.12c.34,0,.62-.28.62-.62s-.28-.62-.62-.62h-8l-1.64-15.54c.49-.3.82-.83.82-1.45ZM372.18,124.82c.25,0,.46.2.46.46s-.2.46-.46.46-.46-.2-.46-.46.2-.46.46-.46Z"></path>
              <path class="cls-5" d="M385.27,115.43c.86,0,1.56-.7,1.56-1.56s-.7-1.56-1.56-1.56c-.63,0-1.16.37-1.41.91h-7.31l-.12.46c-.74,2.75-2.49,5.09-4.94,6.59-.29.18-.38.56-.2.85.12.19.32.3.53.3.11,0,.22-.03.32-.09,2.58-1.59,4.46-4.01,5.35-6.87h6.34c.23.56.79.96,1.44.96Z"></path>
              <path class="cls-5" d="M312.14,144.29c.58,0,1.08-.32,1.35-.79h21.85l3.46-3.46h5.71c.34,0,.62-.28.62-.62s-.28-.62-.62-.62h-6.22l-3.46,3.46h-21.22c-.2-.62-.78-1.07-1.47-1.07-.86,0-1.56.7-1.56,1.56s.7,1.56,1.56,1.56Z"></path>
              <path class="cls-5" d="M306.61,150.26c.66,0,1.22-.41,1.44-.99h25.72c.34,0,.62-.28.62-.62s-.28-.62-.62-.62h-25.76c-.25-.52-.78-.88-1.4-.88-.86,0-1.56.7-1.56,1.56s.7,1.56,1.56,1.56Z"></path>
              <path class="cls-5" d="M424.54,166.35c.86,0,1.56-.7,1.56-1.56,0-.59-.34-1.1-.83-1.37v-15.4c0-.34-.28-.62-.62-.62s-.62.28-.62.62v15.3c-.61.21-1.04.78-1.04,1.46,0,.86.7,1.56,1.56,1.56Z"></path>
              <path class="cls-5" d="M423.17,85.02c0,.61.35,1.13.86,1.39v21.05h-9.76c-.34,0-.62.28-.62.62s.28.62.62.62h11v-22.23c.59-.22,1.01-.79,1.01-1.45,0-.86-.7-1.56-1.56-1.56s-1.56.7-1.56,1.56Z"></path>
              <path class="cls-5" d="M330.01,77.5c-.86,0-1.56.7-1.56,1.56s.7,1.56,1.56,1.56c.63,0,1.18-.38,1.42-.93h11.46s.05.1.09.14l6.58,6.77h19.57c.34,0,.62-.28.62-.62s-.28-.62-.62-.62h-19.05l-5.51-5.67h9.27c.34,0,.62-.28.62-.62s-.28-.62-.62-.62h-22.4c-.24-.55-.79-.94-1.43-.94Z"></path>
              <path class="cls-5" d="M324.26,40.25c.71,0,1.31-.48,1.49-1.14h11.93l.14-.42c2.19-6.37,6.66-11.69,12.58-14.96.3-.17.41-.54.24-.84-.17-.3-.54-.41-.84-.24-6.06,3.35-10.67,8.74-13.01,15.22h-11.22c-.28-.44-.76-.73-1.31-.73-.86,0-1.56.7-1.56,1.56s.7,1.56,1.56,1.56Z"></path>
              <path class="cls-5" d="M322.24,61.81v12.09h14.99l-4.7-4.7h-6.21c-.34,0-.62.28-.62.62s.28.62.62.62h5.7l2.21,2.21h-10.75v-10.68c.65-.18,1.13-.78,1.13-1.49,0-.86-.7-1.56-1.56-1.56s-1.56.7-1.56,1.56c0,.56.29,1.04.73,1.32Z"></path>
              <path class="cls-5" d="M306.02,98.04v10.66h16.79c.34,0,.62-.28.62-.62s-.28-.62-.62-.62h-15.55v-9.68c.39-.28.65-.74.65-1.26,0-.86-.7-1.56-1.56-1.56s-1.56.7-1.56,1.56c0,.74.52,1.36,1.22,1.52Z"></path>
              <path class="cls-5" d="M342.84,102.99c-.86,0-1.56.7-1.56,1.56s.7,1.56,1.56,1.56c.61,0,1.13-.35,1.39-.86h7.13l.12-.47c.77-3.04,2.53-5.79,5-7.79l2.42,2.42.43-.29c1.86-1.28,4.05-1.96,6.32-1.96,4.63,0,8.71,2.79,10.39,7.1.12.32.49.48.8.35.32-.12.48-.48.35-.8-1.87-4.79-6.4-7.89-11.55-7.89-2.35,0-4.62.65-6.59,1.9l-2.47-2.47-.43.33c-2.78,2.1-4.81,5.05-5.76,8.34h-6.1c-.22-.59-.79-1.01-1.45-1.01Z"></path>
              <path class="cls-5" d="M335.78,42.59c-.68,0-1.26.44-1.47,1.05h-11.58l-.08.53c-.27,1.94-.41,3.88-.41,5.76v6.92h4.7v-4.96c0-.34-.28-.62-.62-.62s-.62.28-.62.62v3.72h-2.21v-5.67c0-1.65.11-3.35.33-5.06h10.59c.26.5.78.84,1.38.84.86,0,1.56-.7,1.56-1.56s-.7-1.56-1.56-1.56Z"></path>
            </g>
            <g class="cls-9">
              <path class="cls-5" d="M392.68,169.56h-31.6c-.24-.65-.86-1.11-1.59-1.11-.94,0-1.7.76-1.7,1.7s.76,1.7,1.7,1.7c.7,0,1.31-.43,1.57-1.04h31.63c.34,0,.62-.28.62-.62s-.28-.62-.62-.62ZM359.49,170.61c-.25,0-.46-.2-.46-.46s.2-.46.46-.46.46.2.46.46-.2.46-.46.46Z"></path>
              <path class="cls-5" d="M425.27,120.55v-7.32h-18.05c-.34,0-.62.28-.62.62s.28.62.62.62h16.81v6.18c-.49.26-.83.77-.83,1.37,0,.86.7,1.56,1.56,1.56s1.56-.7,1.56-1.56c0-.68-.44-1.25-1.04-1.46Z"></path>
              <path class="cls-5" d="M421.81,164.58v-16.55h-11.01c-.28-.56-.85-.95-1.52-.95-.94,0-1.7.76-1.7,1.7s.76,1.7,1.7,1.7c.76,0,1.4-.51,1.62-1.2h9.67v12.31l-2.21-2.21v-4.43h-26.44c-.34,0-.62.28-.62.62s.28.62.62.62h25.2v3.7l4.7,4.7ZM409.29,149.23c-.25,0-.46-.2-.46-.46s.2-.46.46-.46.46.2.46.46-.2.46-.46.46Z"></path>
              <path class="cls-5" d="M358.55,129.64s.04,0,.07,0c.31,0,.58-.24.62-.56l.91-8.6-.33-.21c-2.38-1.47-4.1-3.73-4.87-6.39.49-.3.83-.83.83-1.45,0-.94-.76-1.7-1.7-1.7s-1.7.76-1.7,1.7c0,.81.57,1.49,1.33,1.65.8,2.89,2.61,5.37,5.12,7.03l-.83,7.83c-.04.34.21.65.55.68ZM354.06,111.98c.25,0,.46.2.46.46s-.2.46-.46.46-.46-.2-.46-.46.2-.46.46-.46Z"></path>
              <path class="cls-5" d="M310.72,122.3c.71-.21,1.24-.85,1.24-1.62,0-.94-.78-1.7-1.73-1.7s-1.73.76-1.73,1.7c0,.67.4,1.25.98,1.52v16.95l-2.21,2.21v-23.45h7.09c.34,0,.62-.28.62-.62s-.28-.62-.62-.62h-8.33v27.69l4.7-4.7v-17.37ZM310.22,120.23c.27,0,.49.2.49.46s-.22.46-.49.46-.49-.2-.49-.46.22-.46.49-.46Z"></path>
              <path class="cls-5" d="M315.6,113.23h-7.08c-.18-.75-.86-1.3-1.68-1.3-.96,0-1.73.76-1.73,1.7s.78,1.7,1.73,1.7c.65,0,1.21-.36,1.51-.88.05.01.09.03.15.03h6.59l3.46,3.46h18.11l3.46-3.46h10.27c.34,0,.62-.28.62-.62s-.28-.62-.62-.62h-10.78l-3.46,3.46h-17.08l-3.46-3.46ZM306.83,114.08c-.27,0-.49-.2-.49-.46s.22-.46.49-.46.49.2.49.46-.22.46-.49.46Z"></path>
              <path class="cls-5" d="M352.86,123.55l-.2-.21c-.58-.6-1.12-1.24-1.61-1.91.11-.22.19-.46.19-.72,0-.86-.7-1.56-1.56-1.56s-1.56.7-1.56,1.56.7,1.56,1.56,1.56c.14,0,.27-.02.4-.06.46.62.95,1.23,1.49,1.79l-1.2,11.34h-16.71c-.34,0-.62.28-.62.62s.28.62.62.62h17.83l1.38-13.03Z"></path>
              <path class="cls-5" d="M335.22,152.73l3.46-3.46h14.44c.29.52.84.88,1.48.88.94,0,1.7-.76,1.7-1.7s-.76-1.7-1.7-1.7c-.79,0-1.45.54-1.64,1.27h-14.8l-3.46,3.46h-28.68c-.34,0-.62.28-.62.62s.28.62.62.62h29.2ZM354.6,148c.25,0,.46.2.46.46s-.2.46-.46.46-.46-.2-.46-.46.2-.46.46-.46Z"></path>
              <path class="cls-5" d="M393.36,152.11c0,.34.28.62.62.62h24.63c.34,0,.62-.28.62-.62s-.28-.62-.62-.62h-11.19s-.04-.08-.08-.12l-3.34-3.34h-25.25c-.16-.69-.77-1.21-1.51-1.21-.86,0-1.56.7-1.56,1.56s.7,1.56,1.56,1.56c.53,0,.99-.26,1.27-.66h24.98l2.21,2.21h-11.72c-.34,0-.62.28-.62.62Z"></path>
              <path class="cls-5" d="M358.05,166.11h-20.2l-3.46,3.46h-14.84c-.34,0-.62.28-.62.62s.28.62.62.62h15.35l3.46-3.46h16.68l-2.22,2.21h-11.54c-.26-.49-.77-.82-1.36-.82-.86,0-1.56.7-1.56,1.56s.7,1.56,1.56,1.56c.68,0,1.25-.44,1.46-1.05h11.96l4.72-4.7Z"></path>
              <path class="cls-5" d="M413.16,166.11c-.24-.65-.86-1.13-1.59-1.13-.94,0-1.7.76-1.7,1.7s.76,1.7,1.7,1.7c.7,0,1.3-.42,1.56-1.03h7.81l2.21,2.21h-25.66l-2.21-2.21h11.18c.34,0,.62-.28.62-.62s-.28-.62-.62-.62h-14.18l4.7,4.7h29.17s-4.7-4.7-4.7-4.7h-8.29ZM411.56,167.13c-.25,0-.46-.2-.46-.46s.2-.46.46-.46.46.2.46.46-.2.46-.46.46Z"></path>
              <path class="cls-5" d="M360.6,166.73c0,.34.28.62.62.62h25.46c.26.6.86,1.03,1.56,1.03.94,0,1.7-.76,1.7-1.7s-.76-1.7-1.7-1.7c-.73,0-1.36.47-1.59,1.13h-11.55s-.04-.07-.07-.11l-3.35-3.35h-20.22c-.34,0-.62.28-.62.62s.28.62.62.62h19.71l2.21,2.21h-12.16c-.34,0-.62.28-.62.62ZM388.24,166.22c.25,0,.46.2.46.46s-.2.46-.46.46-.46-.2-.46-.46.2-.46.46-.46Z"></path>
              <path class="cls-5" d="M336.49,47.24c.03-.34-.21-.65-.56-.68-.34-.03-.65.21-.68.56-.09.93-.14,1.88-.14,2.82v16.29c-.69.22-1.19.85-1.19,1.61,0,.94.76,1.7,1.7,1.7s1.7-.76,1.7-1.7c0-.67-.4-1.25-.96-1.52v-16.38c0-.9.05-1.81.13-2.69ZM335.62,68.3c-.25,0-.46-.2-.46-.46s.2-.46.46-.46.46.2.46.46-.2.46-.46.46Z"></path>
              <path class="cls-5" d="M410.33,108.08c0-.34-.28-.62-.62-.62h-30.38c-.23-.58-.79-.99-1.45-.99-.86,0-1.56.7-1.56,1.56s.7,1.56,1.56,1.56c.61,0,1.14-.36,1.39-.88h30.43c.34,0,.62-.28.62-.62Z"></path>
              <path class="cls-5" d="M357.99,81.89h-6.54c-.34,0-.62.28-.62.62s.28.62.62.62h7.78v-3.46h29.35c.24.54.79.93,1.42.93.86,0,1.56-.7,1.56-1.56s-.7-1.56-1.56-1.56c-.64,0-1.19.39-1.43.94h-30.58v3.46Z"></path>
              <path class="cls-5" d="M391.3,83.14h23.42c.24.55.79.94,1.43.94.86,0,1.56-.7,1.56-1.56s-.7-1.56-1.56-1.56c-.63,0-1.18.38-1.42.93h-20.43l2.21-2.21h23.72c.34,0,.62-.28.62-.62s-.28-.62-.62-.62h-24.23l-4.7,4.7Z"></path>
              <path class="cls-5" d="M420.57,82.26v17.37c0,.34.28.62.62.62s.62-.28.62-.62v-16.86l1.7-1.7c.19.07.38.11.59.11.94,0,1.7-.76,1.7-1.7s-.76-1.7-1.7-1.7-1.7.76-1.7,1.7c0,.27.07.52.18.75l-2.02,2.02ZM424.1,79.03c.25,0,.46.2.46.46s-.2.46-.46.46-.46-.2-.46-.46.2-.46.46-.46Z"></path>
              <path class="cls-5" d="M333.03,85.35l4.7,4.7h9.49c.34,0,.62-.28.62-.62s-.28-.62-.62-.62h-8.98l-2.21-2.21h5.57c.27.44.76.74,1.32.74.86,0,1.56-.7,1.56-1.56s-.7-1.56-1.56-1.56c-.71,0-1.3.48-1.49,1.13h-8.4Z"></path>
              <path class="cls-5" d="M365.02,88.99v3.48c-1.74.07-3.44.41-5.07,1.05-.32.12-.48.49-.35.8.13.32.48.48.8.35,1.68-.66,3.44-.99,5.24-.99,3.06,0,6,.96,8.5,2.77.11.08.24.12.36.12.19,0,.38-.09.5-.26.2-.28.14-.67-.14-.87-2.54-1.84-5.51-2.85-8.61-2.98v-2.23c6.38.21,12.07,3.72,15.16,9.3-.26.28-.43.65-.43,1.06,0,.86.7,1.56,1.56,1.56s1.56-.7,1.56-1.56-.69-1.54-1.54-1.55c-3.39-6.22-9.79-10.06-16.93-10.06h-.62Z"></path>
              <path class="cls-5" d="M397.86,139.42c0-.34-.28-.62-.62-.62h-13.47c-.15-.06-.33-.06-.48,0h-4.42c-.23-.67-.86-1.15-1.6-1.15-.94,0-1.7.76-1.7,1.7s.76,1.7,1.7,1.7c.69,0,1.28-.41,1.54-1h4.51l3.46,3.46h21.74c.34,0,.62-.28.62-.62s-.28-.62-.62-.62h-21.22l-2.21-2.21h12.16c.34,0,.62-.28.62-.62ZM377.27,139.8c-.25,0-.46-.2-.46-.46s.2-.46.46-.46.46.2.46.46-.2.46-.46.46Z"></path>
              <path class="cls-5" d="M425.41,142.88c0-.34-.28-.62-.62-.62h-11.04l-3.46-3.46h-7.28c-.2-.63-.78-1.09-1.48-1.09-.86,0-1.56.7-1.56,1.56s.7,1.56,1.56,1.56c.57,0,1.07-.32,1.34-.78h6.9l3.46,3.46h11.56c.34,0,.62-.28.62-.62Z"></path>
              <path class="cls-5" d="M424.65,140.61c.34,0,.62-.28.62-.62v-14.5l-4.7,4.7v8.62h-2.96c-.23-.67-.86-1.15-1.6-1.15-.94,0-1.7.76-1.7,1.7s.76,1.7,1.7,1.7c.69,0,1.28-.41,1.54-1h4.25v-9.34l2.21-2.21v11.51c0,.34.28.62.62.62ZM416.01,139.8c-.25,0-.46-.2-.46-.46s.2-.46.46-.46.46.2.46.46-.2.46-.46.46Z"></path>
              <path class="cls-5" d="M389.67,113.23l-3.46,3.46h-6.8c-.34,0-.62.28-.62.62s.28.62.62.62h7.32l3.46-3.46h11.78l2.21,2.21h-10.55c-.23-.66-.86-1.14-1.6-1.14-.94,0-1.7.76-1.7,1.7s.76,1.7,1.7,1.7c.69,0,1.29-.42,1.55-1.02h13.59l-4.7-4.7h-12.81ZM392.04,117.7c-.25,0-.46-.2-.46-.46s.2-.46.46-.46.46.2.46.46-.2.46-.46.46Z"></path>
              <path class="cls-5" d="M324.7,35.38c.06.02.13.03.19.03.26,0,.5-.17.59-.43,1.37-4.17,3.42-8.06,6.09-11.59l2.48,2.48.43-.56c2.6-3.38,5.74-6.24,9.32-8.54.24.16.53.25.84.25.86,0,1.56-.7,1.56-1.56s-.7-1.56-1.56-1.56-1.56.7-1.56,1.56c0,.09.01.18.03.27-3.5,2.25-6.58,5.02-9.18,8.27l-2.48-2.48-.43.55c-2.97,3.78-5.23,8-6.72,12.52-.11.33.07.68.4.78Z"></path>
              <path class="cls-5" d="M397.62,25.78c1.99,2.66,3.59,5.56,4.78,8.63h-5.1c-1.98-4.38-4.96-8.31-8.66-11.39-.26-.22-.66-.18-.87.08-.22.26-.18.66.08.87,3.65,3.04,6.59,6.95,8.48,11.3l.16.37h7.68l-.3-.83c-1.19-3.32-2.85-6.46-4.94-9.35l1.6-1.6c2.92,3.97,5.03,8.35,6.32,13.05-.37.28-.61.73-.61,1.23,0,.86.7,1.56,1.56,1.56s1.56-.7,1.56-1.56c0-.77-.56-1.41-1.3-1.53-1.39-5.09-3.72-9.82-6.96-14.07l-.43-.57-3.37,3.37.32.43Z"></path>
              <path class="cls-5" d="M369.95,7.53c10.03.4,19.37,4.5,26.49,11.58-.11.21-.17.45-.17.7,0,.86.7,1.56,1.56,1.56s1.56-.7,1.56-1.56-.7-1.56-1.56-1.56c-.15,0-.28.03-.42.06-7.35-7.35-17.01-11.61-27.4-12.03-.34-.02-.63.25-.65.6-.01.34.25.63.6.65Z"></path>
              <path class="cls-5" d="M353.3,22.34c3.23-1.31,6.64-1.97,10.14-1.97h3.04c.24.64.86,1.11,1.59,1.11.94,0,1.7-.76,1.7-1.7s-.76-1.7-1.7-1.7c-.71,0-1.31.43-1.57,1.05h-3.05c-3.52,0-6.95.64-10.22,1.91l-1.7-1.7c3.78-1.61,7.79-2.43,11.92-2.43.34,0,.62-.28.62-.62s-.28-.62-.62-.62c-4.61,0-9.07.98-13.26,2.9l-.81.37,3.55,3.55.38-.15ZM368.06,19.32c.25,0,.46.2.46.46s-.2.46-.46.46-.46-.2-.46-.46.2-.46.46-.46Z"></path>
              <path class="cls-5" d="M384.13,21.33l-1.62,1.62c-3.27-1.9-6.82-3.11-10.57-3.59-.34-.04-.65.2-.69.54-.04.34.2.65.54.69,3.74.48,7.27,1.71,10.51,3.67l.42.25,3.4-3.4-.65-.42c-4.95-3.17-10.65-4.9-16.52-5.02v-1.97c1.38.04,2.77.16,4.14.37.16.69.77,1.21,1.52,1.21.86,0,1.56-.7,1.56-1.56s-.7-1.56-1.56-1.56c-.53,0-1,.27-1.28.68-1.65-.26-3.32-.4-4.98-.41h-.63s0,4.46,0,4.46h.62c5.59,0,11.04,1.53,15.81,4.42Z"></path>
              <path class="cls-5" d="M396.65,65.29c0-.34-.28-.62-.62-.62s-.62.28-.62.62v8.62h11.82c.24.56.79.95,1.43.95.86,0,1.56-.7,1.56-1.56s-.7-1.56-1.56-1.56c-.63,0-1.17.38-1.42.92h-10.6v-7.37Z"></path>
              <path class="cls-5" d="M405.47,50.84c-.34,0-.62.28-.62.62v12.5c-.68.22-1.17.85-1.17,1.6,0,.94.76,1.7,1.7,1.7s1.7-.76,1.7-1.7c0-.68-.41-1.27-.99-1.54v-7.34h2.19v13.59c0,.34.28.62.62.62s.62-.28.62-.62v-14.83h-3.43v-3.99c0-.34-.28-.62-.62-.62ZM405.38,66.02c-.25,0-.46-.2-.46-.46s.2-.46.46-.46.46.2.46.46-.2.46-.46.46Z"></path>
              <path class="cls-5" d="M409.52,49.94c0-.76-.02-1.54-.07-2.31-.02-.34-.32-.6-.66-.58-.34.02-.6.31-.58.66.04.74.06,1.49.06,2.23v.76c-.71.2-1.23.85-1.23,1.63,0,.94.76,1.7,1.7,1.7s1.7-.76,1.7-1.7c0-.65-.38-1.22-.92-1.5v-.89ZM408.74,52.78c-.25,0-.46-.2-.46-.46s.2-.46.46-.46.46.2.46.46-.2.46-.46.46Z"></path>
              <path class="cls-5" d="M409.93,92.98h-20.49c-.27-.58-.85-.98-1.53-.98-.94,0-1.7.76-1.7,1.7s.76,1.7,1.7,1.7c.75,0,1.39-.5,1.61-1.18h20.41c.34,0,.62-.28.62-.62s-.28-.62-.62-.62ZM387.91,94.16c-.25,0-.46-.2-.46-.46s.2-.46.46-.46.46.2.46.46-.2.46-.46.46Z"></path>
              <path class="cls-5" d="M343.21,97.09h-9.07l-4.11-4.11h-7.5c-.26-.6-.86-1.02-1.55-1.02-.94,0-1.7.76-1.7,1.7s.76,1.7,1.7,1.7c.74,0,1.36-.48,1.6-1.14h6.94l4.11,4.11h9.59c.34,0,.62-.28.62-.62s-.28-.62-.62-.62ZM320.97,94.12c-.25,0-.46-.2-.46-.46s.2-.46.46-.46.46.2.46.46-.2.46-.46.46Z"></path>
              <path class="cls-5" d="M312.93,132.11l4.81-4.66v-2.61h9.1c.27.6.88,1.01,1.58,1.01.96,0,1.73-.76,1.73-1.7s-.78-1.7-1.73-1.7c-.75,0-1.39.48-1.63,1.14h-10.3v3.32l-2.33,2.25v-4.96c0-.34-.28-.62-.62-.62s-.62.28-.62.62v7.89ZM328.42,123.7c.27,0,.49.2.49.46s-.22.46-.49.46-.49-.2-.49-.46.22-.46.49-.46Z"></path>
              <path class="cls-5" d="M313.55,136.59h14.52l3.46-3.46h10.16c.28.57.85.96,1.52.96.94,0,1.7-.76,1.7-1.7s-.76-1.7-1.7-1.7c-.76,0-1.4.5-1.61,1.19h-10.59l-3.46,3.46h-14.01c-.34,0-.62.28-.62.62s.28.62.62.62ZM343.21,131.94c.25,0,.46.2.46.46s-.2.46-.46.46-.46-.2-.46-.46.2-.46.46-.46Z"></path>
              <path class="cls-5" d="M382.86,132.57c.04.34.35.59.68.55.34-.04.59-.34.55-.68l-.49-4.7h-4.72l.93,8.84h11.29l4.7-4.7h-6.2c-.26-.61-.86-1.04-1.57-1.04-.94,0-1.7.76-1.7,1.7s.76,1.7,1.7,1.7c.73,0,1.35-.46,1.59-1.11h3.18l-2.21,2.21h-9.66l-.67-6.36h2.23l.38,3.59ZM388.02,133c-.25,0-.46-.2-.46-.46s.2-.46.46-.46.46.2.46.46-.2.46-.46.46Z"></path>
              <path class="cls-5" d="M399.76,120.76c0,.34.28.62.62.62h15.85l-2.21,2.21h-17.47c-.23-.66-.86-1.14-1.6-1.14-.94,0-1.7.76-1.7,1.7s.76,1.7,1.7,1.7c.69,0,1.29-.42,1.55-1.01h18.03l4.7-4.7h-18.85c-.34,0-.62.28-.62.62ZM394.96,124.61c-.25,0-.46-.2-.46-.46s.2-.46.46-.46.46.2.46.46-.2.46-.46.46Z"></path>
              <path class="cls-5" d="M395.04,163.27c0-.34-.28-.62-.62-.62h-15.24c-.17-.68-.78-1.18-1.5-1.18-.86,0-1.56.7-1.56,1.56s.7,1.56,1.56,1.56c.54,0,1.01-.27,1.29-.69h15.45c.34,0,.62-.28.62-.62Z"></path>
              <path class="cls-5" d="M306.65,80.72c.7,0,1.31-.43,1.57-1.04h14.99l3.46,3.46h14.16c.34,0,.62-.28.62-.62s-.28-.62-.62-.62h-13.65l-3.46-3.46h-15.48c-.24-.65-.86-1.11-1.59-1.11-.94,0-1.7.76-1.7,1.7s.76,1.7,1.7,1.7ZM306.65,78.57c.25,0,.46.2.46.46s-.2.46-.46.46-.46-.2-.46-.46.2-.46.46-.46Z"></path>
              <path class="cls-5" d="M320.32,84.19c.94,0,1.7-.76,1.7-1.7s-.76-1.7-1.7-1.7c-.72,0-1.34.46-1.58,1.1h-9.26v6.93c0,.34.28.62.62.62s.62-.28.62-.62v-5.69h8.03c.25.62.86,1.06,1.57,1.06ZM320.32,82.04c.25,0,.46.2.46.46s-.2.46-.46.46-.46-.2-.46-.46.2-.46.46-.46Z"></path>
              <path class="cls-5" d="M403.42,40.04c.94,0,1.7-.76,1.7-1.7s-.76-1.7-1.7-1.7c-.77,0-1.42.52-1.62,1.22h-6.83c-1.83-5.06-5.04-9.48-9.32-12.8-.27-.21-.66-.16-.87.11-.21.27-.16.66.11.87,4.21,3.26,7.34,7.64,9.06,12.64l.14.42h7.82c.28.55.85.93,1.51.93ZM403.42,37.88c.25,0,.46.2.46.46s-.2.46-.46.46-.46-.2-.46-.46.2-.46.46-.46Z"></path>
              <path class="cls-5" d="M334.42,20.83c.94,0,1.7-.76,1.7-1.7,0-.23-.05-.45-.13-.65,7.46-7.08,17.19-10.98,27.45-10.98h2.22v2.21h-2.22c-4.58,0-9.09.84-13.4,2.5-.32.12-.48.48-.36.8.12.32.48.48.8.36,4.17-1.61,8.52-2.42,12.95-2.42h3.46v-4.7h-3.46c-10.59,0-20.63,4.03-28.32,11.33-.21-.1-.45-.16-.7-.16-.94,0-1.7.76-1.7,1.7s.76,1.7,1.7,1.7ZM334.42,18.68c.25,0,.46.2.46.46s-.2.46-.46.46-.46-.2-.46-.46.2-.46.46-.46Z"></path>
              <path class="cls-5" d="M398.98,42.6c-.94,0-1.7.76-1.7,1.7s.76,1.7,1.7,1.7c.73,0,1.35-.47,1.59-1.12h6.09l-2.21,2.21h-5.23c-.34,0-.62.28-.62.62s.28.62.62.62h5.74l4.7-4.7h-9.11c-.26-.61-.86-1.04-1.56-1.04ZM398.98,44.75c-.25,0-.46-.2-.46-.46s.2-.46.46-.46.46.2.46.46-.2.46-.46.46Z"></path>
              <path class="cls-5" d="M396.65,59.65v-9.71c0-1.95-.2-3.9-.6-5.81-.07-.34-.4-.55-.73-.48-.34.07-.55.4-.48.74.38,1.82.57,3.69.57,5.55v9.54c-.73.19-1.28.85-1.28,1.64,0,.94.76,1.7,1.7,1.7s1.7-.76,1.7-1.7c0-.63-.35-1.18-.87-1.47ZM395.83,61.58c-.25,0-.46-.2-.46-.46s.2-.46.46-.46.46.2.46.46-.2.46-.46.46Z"></path>
              <path class="cls-5" d="M308.32,104.41c0,.94.76,1.7,1.7,1.7s1.7-.76,1.7-1.7c0-.68-.41-1.27-1-1.54v-9.2l-3.46-3.46v-7.24c0-.34-.28-.62-.62-.62s-.62.28-.62.62v7.76l3.46,3.46v8.62c-.67.23-1.16.86-1.16,1.6ZM310.01,104.87c-.25,0-.46-.2-.46-.46s.2-.46.46-.46.46.2.46.46-.2.46-.46.46Z"></path>
              <path class="cls-5" d="M327.05,109.8c.72,0,1.34-.46,1.58-1.1h25.85v-.61c.06-2.39.85-4.66,2.29-6.55.21-.27.16-.66-.12-.87-.27-.21-.66-.16-.87.12-1.48,1.95-2.35,4.24-2.51,6.67h-24.66c-.25-.62-.86-1.05-1.57-1.05-.94,0-1.7.76-1.7,1.7s.76,1.7,1.7,1.7ZM327.05,107.64c.25,0,.46.2.46.46s-.2.46-.46.46-.46-.2-.46-.46.2-.46.46-.46Z"></path>
              <path class="cls-5" d="M340.94,144.62c.73,0,1.35-.47,1.59-1.12h15.18l1.01-9.53c.04-.34-.21-.65-.55-.68-.34-.04-.65.21-.68.55l-.89,8.42h-14.09c-.26-.61-.86-1.04-1.56-1.04-.94,0-1.7.76-1.7,1.7s.76,1.7,1.7,1.7ZM340.94,142.46c.25,0,.46.2.46.46s-.2.46-.46.46-.46-.2-.46-.46.2-.46.46-.46Z"></path>
              <path class="cls-5" d="M367.07,157.21c.94,0,1.7-.76,1.7-1.7s-.76-1.7-1.7-1.7c-.74,0-1.36.47-1.59,1.13h-18.08l-3.64,3.64h-24.2c-.34,0-.62.28-.62.62s.28.62.62.62h24.72l3.64-3.64h17.61c.26.6.86,1.02,1.56,1.02ZM367.07,155.05c.25,0,.46.2.46.46s-.2.46-.46.46-.46-.2-.46-.46.2-.46.46-.46Z"></path>
              <path class="cls-5" d="M389.87,150.12c-.82,0-1.51.59-1.66,1.37h-12.62l-3.46-3.46h-13.62c-.34,0-.62.28-.62.62s.28.62.62.62h13.1l3.46,3.46h13.38c.3.47.83.78,1.43.78.94,0,1.7-.76,1.7-1.7s-.76-1.7-1.7-1.7ZM389.87,152.27c-.25,0-.46-.2-.46-.46s.2-.46.46-.46.46.2.46.46-.2.46-.46.46Z"></path>
              <path class="cls-5" d="M314.12,168.35c-.77,0-1.41.51-1.62,1.21h-5.24v-13.65h2.21v7.19c0,.34.28.62.62.62s.62-.28.62-.62v-8.43h-4.7v16.14h6.59c.28.56.85.94,1.51.94.94,0,1.7-.76,1.7-1.7s-.76-1.7-1.7-1.7ZM314.12,170.51c-.25,0-.46-.2-.46-.46s.2-.46.46-.46.46.2.46.46-.2.46-.46.46Z"></path>
              <path class="cls-5" d="M373.88,125.27c0-.94-.76-1.7-1.7-1.7s-1.7.76-1.7,1.7c0,.82.58,1.5,1.35,1.66l1.75,16.56h9.12c.34,0,.62-.28.62-.62s-.28-.62-.62-.62h-8l-1.64-15.54c.49-.3.82-.83.82-1.45ZM372.18,124.82c.25,0,.46.2.46.46s-.2.46-.46.46-.46-.2-.46-.46.2-.46.46-.46Z"></path>
              <path class="cls-5" d="M385.27,115.43c.86,0,1.56-.7,1.56-1.56s-.7-1.56-1.56-1.56c-.63,0-1.16.37-1.41.91h-7.31l-.12.46c-.74,2.75-2.49,5.09-4.94,6.59-.29.18-.38.56-.2.85.12.19.32.3.53.3.11,0,.22-.03.32-.09,2.58-1.59,4.46-4.01,5.35-6.87h6.34c.23.56.79.96,1.44.96Z"></path>
              <path class="cls-5" d="M312.14,144.29c.58,0,1.08-.32,1.35-.79h21.85l3.46-3.46h5.71c.34,0,.62-.28.62-.62s-.28-.62-.62-.62h-6.22l-3.46,3.46h-21.22c-.2-.62-.78-1.07-1.47-1.07-.86,0-1.56.7-1.56,1.56s.7,1.56,1.56,1.56Z"></path>
              <path class="cls-5" d="M306.61,150.26c.66,0,1.22-.41,1.44-.99h25.72c.34,0,.62-.28.62-.62s-.28-.62-.62-.62h-25.76c-.25-.52-.78-.88-1.4-.88-.86,0-1.56.7-1.56,1.56s.7,1.56,1.56,1.56Z"></path>
              <path class="cls-5" d="M424.54,166.35c.86,0,1.56-.7,1.56-1.56,0-.59-.34-1.1-.83-1.37v-15.4c0-.34-.28-.62-.62-.62s-.62.28-.62.62v15.3c-.61.21-1.04.78-1.04,1.46,0,.86.7,1.56,1.56,1.56Z"></path>
              <path class="cls-5" d="M423.17,85.02c0,.61.35,1.13.86,1.39v21.05h-9.76c-.34,0-.62.28-.62.62s.28.62.62.62h11v-22.23c.59-.22,1.01-.79,1.01-1.45,0-.86-.7-1.56-1.56-1.56s-1.56.7-1.56,1.56Z"></path>
              <path class="cls-5" d="M330.01,77.5c-.86,0-1.56.7-1.56,1.56s.7,1.56,1.56,1.56c.63,0,1.18-.38,1.42-.93h11.46s.05.1.09.14l6.58,6.77h19.57c.34,0,.62-.28.62-.62s-.28-.62-.62-.62h-19.05l-5.51-5.67h9.27c.34,0,.62-.28.62-.62s-.28-.62-.62-.62h-22.4c-.24-.55-.79-.94-1.43-.94Z"></path>
              <path class="cls-5" d="M324.26,40.25c.71,0,1.31-.48,1.49-1.14h11.93l.14-.42c2.19-6.37,6.66-11.69,12.58-14.96.3-.17.41-.54.24-.84-.17-.3-.54-.41-.84-.24-6.06,3.35-10.67,8.74-13.01,15.22h-11.22c-.28-.44-.76-.73-1.31-.73-.86,0-1.56.7-1.56,1.56s.7,1.56,1.56,1.56Z"></path>
              <path class="cls-5" d="M322.24,61.81v12.09h14.99l-4.7-4.7h-6.21c-.34,0-.62.28-.62.62s.28.62.62.62h5.7l2.21,2.21h-10.75v-10.68c.65-.18,1.13-.78,1.13-1.49,0-.86-.7-1.56-1.56-1.56s-1.56.7-1.56,1.56c0,.56.29,1.04.73,1.32Z"></path>
              <path class="cls-5" d="M306.02,98.04v10.66h16.79c.34,0,.62-.28.62-.62s-.28-.62-.62-.62h-15.55v-9.68c.39-.28.65-.74.65-1.26,0-.86-.7-1.56-1.56-1.56s-1.56.7-1.56,1.56c0,.74.52,1.36,1.22,1.52Z"></path>
              <path class="cls-5" d="M342.84,102.99c-.86,0-1.56.7-1.56,1.56s.7,1.56,1.56,1.56c.61,0,1.13-.35,1.39-.86h7.13l.12-.47c.77-3.04,2.53-5.79,5-7.79l2.42,2.42.43-.29c1.86-1.28,4.05-1.96,6.32-1.96,4.63,0,8.71,2.79,10.39,7.1.12.32.49.48.8.35.32-.12.48-.48.35-.8-1.87-4.79-6.4-7.89-11.55-7.89-2.35,0-4.62.65-6.59,1.9l-2.47-2.47-.43.33c-2.78,2.1-4.81,5.05-5.76,8.34h-6.1c-.22-.59-.79-1.01-1.45-1.01Z"></path>
              <path class="cls-5" d="M335.78,42.59c-.68,0-1.26.44-1.47,1.05h-11.58l-.08.53c-.27,1.94-.41,3.88-.41,5.76v6.92h4.7v-4.96c0-.34-.28-.62-.62-.62s-.62.28-.62.62v3.72h-2.21v-5.67c0-1.65.11-3.35.33-5.06h10.59c.26.5.78.84,1.38.84.86,0,1.56-.7,1.56-1.56s-.7-1.56-1.56-1.56Z"></path>
            </g>
            <g class="cls-8">
              <path class="cls-5" d="M392.68,169.56h-31.6c-.24-.65-.86-1.11-1.59-1.11-.94,0-1.7.76-1.7,1.7s.76,1.7,1.7,1.7c.7,0,1.31-.43,1.57-1.04h31.63c.34,0,.62-.28.62-.62s-.28-.62-.62-.62ZM359.49,170.61c-.25,0-.46-.2-.46-.46s.2-.46.46-.46.46.2.46.46-.2.46-.46.46Z"></path>
              <path class="cls-5" d="M425.27,120.55v-7.32h-18.05c-.34,0-.62.28-.62.62s.28.62.62.62h16.81v6.18c-.49.26-.83.77-.83,1.37,0,.86.7,1.56,1.56,1.56s1.56-.7,1.56-1.56c0-.68-.44-1.25-1.04-1.46Z"></path>
              <path class="cls-5" d="M421.81,164.58v-16.55h-11.01c-.28-.56-.85-.95-1.52-.95-.94,0-1.7.76-1.7,1.7s.76,1.7,1.7,1.7c.76,0,1.4-.51,1.62-1.2h9.67v12.31l-2.21-2.21v-4.43h-26.44c-.34,0-.62.28-.62.62s.28.62.62.62h25.2v3.7l4.7,4.7ZM409.29,149.23c-.25,0-.46-.2-.46-.46s.2-.46.46-.46.46.2.46.46-.2.46-.46.46Z"></path>
              <path class="cls-5" d="M358.55,129.64s.04,0,.07,0c.31,0,.58-.24.62-.56l.91-8.6-.33-.21c-2.38-1.47-4.1-3.73-4.87-6.39.49-.3.83-.83.83-1.45,0-.94-.76-1.7-1.7-1.7s-1.7.76-1.7,1.7c0,.81.57,1.49,1.33,1.65.8,2.89,2.61,5.37,5.12,7.03l-.83,7.83c-.04.34.21.65.55.68ZM354.06,111.98c.25,0,.46.2.46.46s-.2.46-.46.46-.46-.2-.46-.46.2-.46.46-.46Z"></path>
              <path class="cls-5" d="M310.72,122.3c.71-.21,1.24-.85,1.24-1.62,0-.94-.78-1.7-1.73-1.7s-1.73.76-1.73,1.7c0,.67.4,1.25.98,1.52v16.95l-2.21,2.21v-23.45h7.09c.34,0,.62-.28.62-.62s-.28-.62-.62-.62h-8.33v27.69l4.7-4.7v-17.37ZM310.22,120.23c.27,0,.49.2.49.46s-.22.46-.49.46-.49-.2-.49-.46.22-.46.49-.46Z"></path>
              <path class="cls-5" d="M315.6,113.23h-7.08c-.18-.75-.86-1.3-1.68-1.3-.96,0-1.73.76-1.73,1.7s.78,1.7,1.73,1.7c.65,0,1.21-.36,1.51-.88.05.01.09.03.15.03h6.59l3.46,3.46h18.11l3.46-3.46h10.27c.34,0,.62-.28.62-.62s-.28-.62-.62-.62h-10.78l-3.46,3.46h-17.08l-3.46-3.46ZM306.83,114.08c-.27,0-.49-.2-.49-.46s.22-.46.49-.46.49.2.49.46-.22.46-.49.46Z"></path>
              <path class="cls-5" d="M352.86,123.55l-.2-.21c-.58-.6-1.12-1.24-1.61-1.91.11-.22.19-.46.19-.72,0-.86-.7-1.56-1.56-1.56s-1.56.7-1.56,1.56.7,1.56,1.56,1.56c.14,0,.27-.02.4-.06.46.62.95,1.23,1.49,1.79l-1.2,11.34h-16.71c-.34,0-.62.28-.62.62s.28.62.62.62h17.83l1.38-13.03Z"></path>
              <path class="cls-5" d="M335.22,152.73l3.46-3.46h14.44c.29.52.84.88,1.48.88.94,0,1.7-.76,1.7-1.7s-.76-1.7-1.7-1.7c-.79,0-1.45.54-1.64,1.27h-14.8l-3.46,3.46h-28.68c-.34,0-.62.28-.62.62s.28.62.62.62h29.2ZM354.6,148c.25,0,.46.2.46.46s-.2.46-.46.46-.46-.2-.46-.46.2-.46.46-.46Z"></path>
              <path class="cls-5" d="M393.36,152.11c0,.34.28.62.62.62h24.63c.34,0,.62-.28.62-.62s-.28-.62-.62-.62h-11.19s-.04-.08-.08-.12l-3.34-3.34h-25.25c-.16-.69-.77-1.21-1.51-1.21-.86,0-1.56.7-1.56,1.56s.7,1.56,1.56,1.56c.53,0,.99-.26,1.27-.66h24.98l2.21,2.21h-11.72c-.34,0-.62.28-.62.62Z"></path>
              <path class="cls-5" d="M358.05,166.11h-20.2l-3.46,3.46h-14.84c-.34,0-.62.28-.62.62s.28.62.62.62h15.35l3.46-3.46h16.68l-2.22,2.21h-11.54c-.26-.49-.77-.82-1.36-.82-.86,0-1.56.7-1.56,1.56s.7,1.56,1.56,1.56c.68,0,1.25-.44,1.46-1.05h11.96l4.72-4.7Z"></path>
              <path class="cls-5" d="M413.16,166.11c-.24-.65-.86-1.13-1.59-1.13-.94,0-1.7.76-1.7,1.7s.76,1.7,1.7,1.7c.7,0,1.3-.42,1.56-1.03h7.81l2.21,2.21h-25.66l-2.21-2.21h11.18c.34,0,.62-.28.62-.62s-.28-.62-.62-.62h-14.18l4.7,4.7h29.17s-4.7-4.7-4.7-4.7h-8.29ZM411.56,167.13c-.25,0-.46-.2-.46-.46s.2-.46.46-.46.46.2.46.46-.2.46-.46.46Z"></path>
              <path class="cls-5" d="M360.6,166.73c0,.34.28.62.62.62h25.46c.26.6.86,1.03,1.56,1.03.94,0,1.7-.76,1.7-1.7s-.76-1.7-1.7-1.7c-.73,0-1.36.47-1.59,1.13h-11.55s-.04-.07-.07-.11l-3.35-3.35h-20.22c-.34,0-.62.28-.62.62s.28.62.62.62h19.71l2.21,2.21h-12.16c-.34,0-.62.28-.62.62ZM388.24,166.22c.25,0,.46.2.46.46s-.2.46-.46.46-.46-.2-.46-.46.2-.46.46-.46Z"></path>
              <path class="cls-5" d="M336.49,47.24c.03-.34-.21-.65-.56-.68-.34-.03-.65.21-.68.56-.09.93-.14,1.88-.14,2.82v16.29c-.69.22-1.19.85-1.19,1.61,0,.94.76,1.7,1.7,1.7s1.7-.76,1.7-1.7c0-.67-.4-1.25-.96-1.52v-16.38c0-.9.05-1.81.13-2.69ZM335.62,68.3c-.25,0-.46-.2-.46-.46s.2-.46.46-.46.46.2.46.46-.2.46-.46.46Z"></path>
              <path class="cls-5" d="M410.33,108.08c0-.34-.28-.62-.62-.62h-30.38c-.23-.58-.79-.99-1.45-.99-.86,0-1.56.7-1.56,1.56s.7,1.56,1.56,1.56c.61,0,1.14-.36,1.39-.88h30.43c.34,0,.62-.28.62-.62Z"></path>
              <path class="cls-5" d="M357.99,81.89h-6.54c-.34,0-.62.28-.62.62s.28.62.62.62h7.78v-3.46h29.35c.24.54.79.93,1.42.93.86,0,1.56-.7,1.56-1.56s-.7-1.56-1.56-1.56c-.64,0-1.19.39-1.43.94h-30.58v3.46Z"></path>
              <path class="cls-5" d="M391.3,83.14h23.42c.24.55.79.94,1.43.94.86,0,1.56-.7,1.56-1.56s-.7-1.56-1.56-1.56c-.63,0-1.18.38-1.42.93h-20.43l2.21-2.21h23.72c.34,0,.62-.28.62-.62s-.28-.62-.62-.62h-24.23l-4.7,4.7Z"></path>
              <path class="cls-5" d="M420.57,82.26v17.37c0,.34.28.62.62.62s.62-.28.62-.62v-16.86l1.7-1.7c.19.07.38.11.59.11.94,0,1.7-.76,1.7-1.7s-.76-1.7-1.7-1.7-1.7.76-1.7,1.7c0,.27.07.52.18.75l-2.02,2.02ZM424.1,79.03c.25,0,.46.2.46.46s-.2.46-.46.46-.46-.2-.46-.46.2-.46.46-.46Z"></path>
              <path class="cls-5" d="M373.11,86.46c-.25,0-.46-.2-.46-.46s.2-.46.46-.46.46.2.46.46-.2.46-.46.46Z"></path>
              <path class="cls-5" d="M333.03,85.35l4.7,4.7h9.49c.34,0,.62-.28.62-.62s-.28-.62-.62-.62h-8.98l-2.21-2.21h5.57c.27.44.76.74,1.32.74.86,0,1.56-.7,1.56-1.56s-.7-1.56-1.56-1.56c-.71,0-1.3.48-1.49,1.13h-8.4Z"></path>
              <path class="cls-5" d="M365.02,88.99v3.48c-1.74.07-3.44.41-5.07,1.05-.32.12-.48.49-.35.8.13.32.48.48.8.35,1.68-.66,3.44-.99,5.24-.99,3.06,0,6,.96,8.5,2.77.11.08.24.12.36.12.19,0,.38-.09.5-.26.2-.28.14-.67-.14-.87-2.54-1.84-5.51-2.85-8.61-2.98v-2.23c6.38.21,12.07,3.72,15.16,9.3-.26.28-.43.65-.43,1.06,0,.86.7,1.56,1.56,1.56s1.56-.7,1.56-1.56-.69-1.54-1.54-1.55c-3.39-6.22-9.79-10.06-16.93-10.06h-.62Z"></path>
              <path class="cls-5" d="M397.86,139.42c0-.34-.28-.62-.62-.62h-13.47c-.15-.06-.33-.06-.48,0h-4.42c-.23-.67-.86-1.15-1.6-1.15-.94,0-1.7.76-1.7,1.7s.76,1.7,1.7,1.7c.69,0,1.28-.41,1.54-1h4.51l3.46,3.46h21.74c.34,0,.62-.28.62-.62s-.28-.62-.62-.62h-21.22l-2.21-2.21h12.16c.34,0,.62-.28.62-.62ZM377.27,139.8c-.25,0-.46-.2-.46-.46s.2-.46.46-.46.46.2.46.46-.2.46-.46.46Z"></path>
              <path class="cls-5" d="M425.41,142.88c0-.34-.28-.62-.62-.62h-11.04l-3.46-3.46h-7.28c-.2-.63-.78-1.09-1.48-1.09-.86,0-1.56.7-1.56,1.56s.7,1.56,1.56,1.56c.57,0,1.07-.32,1.34-.78h6.9l3.46,3.46h11.56c.34,0,.62-.28.62-.62Z"></path>
              <path class="cls-5" d="M424.65,140.61c.34,0,.62-.28.62-.62v-14.5l-4.7,4.7v8.62h-2.96c-.23-.67-.86-1.15-1.6-1.15-.94,0-1.7.76-1.7,1.7s.76,1.7,1.7,1.7c.69,0,1.28-.41,1.54-1h4.25v-9.34l2.21-2.21v11.51c0,.34.28.62.62.62ZM416.01,139.8c-.25,0-.46-.2-.46-.46s.2-.46.46-.46.46.2.46.46-.2.46-.46.46Z"></path>
              <path class="cls-5" d="M389.67,113.23l-3.46,3.46h-6.8c-.34,0-.62.28-.62.62s.28.62.62.62h7.32l3.46-3.46h11.78l2.21,2.21h-10.55c-.23-.66-.86-1.14-1.6-1.14-.94,0-1.7.76-1.7,1.7s.76,1.7,1.7,1.7c.69,0,1.29-.42,1.55-1.02h13.59l-4.7-4.7h-12.81ZM392.04,117.7c-.25,0-.46-.2-.46-.46s.2-.46.46-.46.46.2.46.46-.2.46-.46.46Z"></path>
              <path class="cls-5" d="M324.7,35.38c.06.02.13.03.19.03.26,0,.5-.17.59-.43,1.37-4.17,3.42-8.06,6.09-11.59l2.48,2.48.43-.56c2.6-3.38,5.74-6.24,9.32-8.54.24.16.53.25.84.25.86,0,1.56-.7,1.56-1.56s-.7-1.56-1.56-1.56-1.56.7-1.56,1.56c0,.09.01.18.03.27-3.5,2.25-6.58,5.02-9.18,8.27l-2.48-2.48-.43.55c-2.97,3.78-5.23,8-6.72,12.52-.11.33.07.68.4.78Z"></path>
              <path class="cls-5" d="M397.62,25.78c1.99,2.66,3.59,5.56,4.78,8.63h-5.1c-1.98-4.38-4.96-8.31-8.66-11.39-.26-.22-.66-.18-.87.08-.22.26-.18.66.08.87,3.65,3.04,6.59,6.95,8.48,11.3l.16.37h7.68l-.3-.83c-1.19-3.32-2.85-6.46-4.94-9.35l1.6-1.6c2.92,3.97,5.03,8.35,6.32,13.05-.37.28-.61.73-.61,1.23,0,.86.7,1.56,1.56,1.56s1.56-.7,1.56-1.56c0-.77-.56-1.41-1.3-1.53-1.39-5.09-3.72-9.82-6.96-14.07l-.43-.57-3.37,3.37.32.43Z"></path>
              <path class="cls-5" d="M369.95,7.53c10.03.4,19.37,4.5,26.49,11.58-.11.21-.17.45-.17.7,0,.86.7,1.56,1.56,1.56s1.56-.7,1.56-1.56-.7-1.56-1.56-1.56c-.15,0-.28.03-.42.06-7.35-7.35-17.01-11.61-27.4-12.03-.34-.02-.63.25-.65.6-.01.34.25.63.6.65Z"></path>
              <path class="cls-5" d="M353.3,22.34c3.23-1.31,6.64-1.97,10.14-1.97h3.04c.24.64.86,1.11,1.59,1.11.94,0,1.7-.76,1.7-1.7s-.76-1.7-1.7-1.7c-.71,0-1.31.43-1.57,1.05h-3.05c-3.52,0-6.95.64-10.22,1.91l-1.7-1.7c3.78-1.61,7.79-2.43,11.92-2.43.34,0,.62-.28.62-.62s-.28-.62-.62-.62c-4.61,0-9.07.98-13.26,2.9l-.81.37,3.55,3.55.38-.15ZM368.06,19.32c.25,0,.46.2.46.46s-.2.46-.46.46-.46-.2-.46-.46.2-.46.46-.46Z"></path>
              <path class="cls-5" d="M384.13,21.33l-1.62,1.62c-3.27-1.9-6.82-3.11-10.57-3.59-.34-.04-.65.2-.69.54-.04.34.2.65.54.69,3.74.48,7.27,1.71,10.51,3.67l.42.25,3.4-3.4-.65-.42c-4.95-3.17-10.65-4.9-16.52-5.02v-1.97c1.38.04,2.77.16,4.14.37.16.69.77,1.21,1.52,1.21.86,0,1.56-.7,1.56-1.56s-.7-1.56-1.56-1.56c-.53,0-1,.27-1.28.68-1.65-.26-3.32-.4-4.98-.41h-.63s0,4.46,0,4.46h.62c5.59,0,11.04,1.53,15.81,4.42Z"></path>
              <path class="cls-5" d="M396.65,65.29c0-.34-.28-.62-.62-.62s-.62.28-.62.62v8.62h11.82c.24.56.79.95,1.43.95.86,0,1.56-.7,1.56-1.56s-.7-1.56-1.56-1.56c-.63,0-1.17.38-1.42.92h-10.6v-7.37Z"></path>
              <path class="cls-5" d="M405.47,50.84c-.34,0-.62.28-.62.62v12.5c-.68.22-1.17.85-1.17,1.6,0,.94.76,1.7,1.7,1.7s1.7-.76,1.7-1.7c0-.68-.41-1.27-.99-1.54v-7.34h2.19v13.59c0,.34.28.62.62.62s.62-.28.62-.62v-14.83h-3.43v-3.99c0-.34-.28-.62-.62-.62ZM405.38,66.02c-.25,0-.46-.2-.46-.46s.2-.46.46-.46.46.2.46.46-.2.46-.46.46Z"></path>
              <path class="cls-5" d="M409.52,49.94c0-.76-.02-1.54-.07-2.31-.02-.34-.32-.6-.66-.58-.34.02-.6.31-.58.66.04.74.06,1.49.06,2.23v.76c-.71.2-1.23.85-1.23,1.63,0,.94.76,1.7,1.7,1.7s1.7-.76,1.7-1.7c0-.65-.38-1.22-.92-1.5v-.89ZM408.74,52.78c-.25,0-.46-.2-.46-.46s.2-.46.46-.46.46.2.46.46-.2.46-.46.46Z"></path>
              <path class="cls-5" d="M409.93,92.98h-20.49c-.27-.58-.85-.98-1.53-.98-.94,0-1.7.76-1.7,1.7s.76,1.7,1.7,1.7c.75,0,1.39-.5,1.61-1.18h20.41c.34,0,.62-.28.62-.62s-.28-.62-.62-.62ZM387.91,94.16c-.25,0-.46-.2-.46-.46s.2-.46.46-.46.46.2.46.46-.2.46-.46.46Z"></path>
              <path class="cls-5" d="M343.21,97.09h-9.07l-4.11-4.11h-7.5c-.26-.6-.86-1.02-1.55-1.02-.94,0-1.7.76-1.7,1.7s.76,1.7,1.7,1.7c.74,0,1.36-.48,1.6-1.14h6.94l4.11,4.11h9.59c.34,0,.62-.28.62-.62s-.28-.62-.62-.62ZM320.97,94.12c-.25,0-.46-.2-.46-.46s.2-.46.46-.46.46.2.46.46-.2.46-.46.46Z"></path>
              <path class="cls-5" d="M312.93,132.11l4.81-4.66v-2.61h9.1c.27.6.88,1.01,1.58,1.01.96,0,1.73-.76,1.73-1.7s-.78-1.7-1.73-1.7c-.75,0-1.39.48-1.63,1.14h-10.3v3.32l-2.33,2.25v-4.96c0-.34-.28-.62-.62-.62s-.62.28-.62.62v7.89ZM328.42,123.7c.27,0,.49.2.49.46s-.22.46-.49.46-.49-.2-.49-.46.22-.46.49-.46Z"></path>
              <path class="cls-5" d="M313.55,136.59h14.52l3.46-3.46h10.16c.28.57.85.96,1.52.96.94,0,1.7-.76,1.7-1.7s-.76-1.7-1.7-1.7c-.76,0-1.4.5-1.61,1.19h-10.59l-3.46,3.46h-14.01c-.34,0-.62.28-.62.62s.28.62.62.62ZM343.21,131.94c.25,0,.46.2.46.46s-.2.46-.46.46-.46-.2-.46-.46.2-.46.46-.46Z"></path>
              <path class="cls-5" d="M382.86,132.57c.04.34.35.59.68.55.34-.04.59-.34.55-.68l-.49-4.7h-4.72l.93,8.84h11.29l4.7-4.7h-6.2c-.26-.61-.86-1.04-1.57-1.04-.94,0-1.7.76-1.7,1.7s.76,1.7,1.7,1.7c.73,0,1.35-.46,1.59-1.11h3.18l-2.21,2.21h-9.66l-.67-6.36h2.23l.38,3.59ZM388.02,133c-.25,0-.46-.2-.46-.46s.2-.46.46-.46.46.2.46.46-.2.46-.46.46Z"></path>
              <path class="cls-5" d="M399.76,120.76c0,.34.28.62.62.62h15.85l-2.21,2.21h-17.47c-.23-.66-.86-1.14-1.6-1.14-.94,0-1.7.76-1.7,1.7s.76,1.7,1.7,1.7c.69,0,1.29-.42,1.55-1.01h18.03l4.7-4.7h-18.85c-.34,0-.62.28-.62.62ZM394.96,124.61c-.25,0-.46-.2-.46-.46s.2-.46.46-.46.46.2.46.46-.2.46-.46.46Z"></path>
              <path class="cls-5" d="M395.04,163.27c0-.34-.28-.62-.62-.62h-15.24c-.17-.68-.78-1.18-1.5-1.18-.86,0-1.56.7-1.56,1.56s.7,1.56,1.56,1.56c.54,0,1.01-.27,1.29-.69h15.45c.34,0,.62-.28.62-.62Z"></path>
              <path class="cls-5" d="M306.65,80.72c.7,0,1.31-.43,1.57-1.04h14.99l3.46,3.46h14.16c.34,0,.62-.28.62-.62s-.28-.62-.62-.62h-13.65l-3.46-3.46h-15.48c-.24-.65-.86-1.11-1.59-1.11-.94,0-1.7.76-1.7,1.7s.76,1.7,1.7,1.7ZM306.65,78.57c.25,0,.46.2.46.46s-.2.46-.46.46-.46-.2-.46-.46.2-.46.46-.46Z"></path>
              <path class="cls-5" d="M320.32,84.19c.94,0,1.7-.76,1.7-1.7s-.76-1.7-1.7-1.7c-.72,0-1.34.46-1.58,1.1h-9.26v6.93c0,.34.28.62.62.62s.62-.28.62-.62v-5.69h8.03c.25.62.86,1.06,1.57,1.06ZM320.32,82.04c.25,0,.46.2.46.46s-.2.46-.46.46-.46-.2-.46-.46.2-.46.46-.46Z"></path>
              <path class="cls-5" d="M403.42,40.04c.94,0,1.7-.76,1.7-1.7s-.76-1.7-1.7-1.7c-.77,0-1.42.52-1.62,1.22h-6.83c-1.83-5.06-5.04-9.48-9.32-12.8-.27-.21-.66-.16-.87.11-.21.27-.16.66.11.87,4.21,3.26,7.34,7.64,9.06,12.64l.14.42h7.82c.28.55.85.93,1.51.93ZM403.42,37.88c.25,0,.46.2.46.46s-.2.46-.46.46-.46-.2-.46-.46.2-.46.46-.46Z"></path>
              <path class="cls-5" d="M334.42,20.83c.94,0,1.7-.76,1.7-1.7,0-.23-.05-.45-.13-.65,7.46-7.08,17.19-10.98,27.45-10.98h2.22v2.21h-2.22c-4.58,0-9.09.84-13.4,2.5-.32.12-.48.48-.36.8.12.32.48.48.8.36,4.17-1.61,8.52-2.42,12.95-2.42h3.46v-4.7h-3.46c-10.59,0-20.63,4.03-28.32,11.33-.21-.1-.45-.16-.7-.16-.94,0-1.7.76-1.7,1.7s.76,1.7,1.7,1.7ZM334.42,18.68c.25,0,.46.2.46.46s-.2.46-.46.46-.46-.2-.46-.46.2-.46.46-.46Z"></path>
              <path class="cls-5" d="M398.98,42.6c-.94,0-1.7.76-1.7,1.7s.76,1.7,1.7,1.7c.73,0,1.35-.47,1.59-1.12h6.09l-2.21,2.21h-5.23c-.34,0-.62.28-.62.62s.28.62.62.62h5.74l4.7-4.7h-9.11c-.26-.61-.86-1.04-1.56-1.04ZM398.98,44.75c-.25,0-.46-.2-.46-.46s.2-.46.46-.46.46.2.46.46-.2.46-.46.46Z"></path>
              <path class="cls-5" d="M396.65,59.65v-9.71c0-1.95-.2-3.9-.6-5.81-.07-.34-.4-.55-.73-.48-.34.07-.55.4-.48.74.38,1.82.57,3.69.57,5.55v9.54c-.73.19-1.28.85-1.28,1.64,0,.94.76,1.7,1.7,1.7s1.7-.76,1.7-1.7c0-.63-.35-1.18-.87-1.47ZM395.83,61.58c-.25,0-.46-.2-.46-.46s.2-.46.46-.46.46.2.46.46-.2.46-.46.46Z"></path>
              <path class="cls-5" d="M308.32,104.41c0,.94.76,1.7,1.7,1.7s1.7-.76,1.7-1.7c0-.68-.41-1.27-1-1.54v-9.2l-3.46-3.46v-7.24c0-.34-.28-.62-.62-.62s-.62.28-.62.62v7.76l3.46,3.46v8.62c-.67.23-1.16.86-1.16,1.6ZM310.01,104.87c-.25,0-.46-.2-.46-.46s.2-.46.46-.46.46.2.46.46-.2.46-.46.46Z"></path>
              <path class="cls-5" d="M327.05,109.8c.72,0,1.34-.46,1.58-1.1h25.85v-.61c.06-2.39.85-4.66,2.29-6.55.21-.27.16-.66-.12-.87-.27-.21-.66-.16-.87.12-1.48,1.95-2.35,4.24-2.51,6.67h-24.66c-.25-.62-.86-1.05-1.57-1.05-.94,0-1.7.76-1.7,1.7s.76,1.7,1.7,1.7ZM327.05,107.64c.25,0,.46.2.46.46s-.2.46-.46.46-.46-.2-.46-.46.2-.46.46-.46Z"></path>
              <path class="cls-5" d="M340.94,144.62c.73,0,1.35-.47,1.59-1.12h15.18l1.01-9.53c.04-.34-.21-.65-.55-.68-.34-.04-.65.21-.68.55l-.89,8.42h-14.09c-.26-.61-.86-1.04-1.56-1.04-.94,0-1.7.76-1.7,1.7s.76,1.7,1.7,1.7ZM340.94,142.46c.25,0,.46.2.46.46s-.2.46-.46.46-.46-.2-.46-.46.2-.46.46-.46Z"></path>
              <path class="cls-5" d="M367.07,157.21c.94,0,1.7-.76,1.7-1.7s-.76-1.7-1.7-1.7c-.74,0-1.36.47-1.59,1.13h-18.08l-3.64,3.64h-24.2c-.34,0-.62.28-.62.62s.28.62.62.62h24.72l3.64-3.64h17.61c.26.6.86,1.02,1.56,1.02ZM367.07,155.05c.25,0,.46.2.46.46s-.2.46-.46.46-.46-.2-.46-.46.2-.46.46-.46Z"></path>
              <path class="cls-5" d="M389.87,150.12c-.82,0-1.51.59-1.66,1.37h-12.62l-3.46-3.46h-13.62c-.34,0-.62.28-.62.62s.28.62.62.62h13.1l3.46,3.46h13.38c.3.47.83.78,1.43.78.94,0,1.7-.76,1.7-1.7s-.76-1.7-1.7-1.7ZM389.87,152.27c-.25,0-.46-.2-.46-.46s.2-.46.46-.46.46.2.46.46-.2.46-.46.46Z"></path>
              <path class="cls-5" d="M314.12,168.35c-.77,0-1.41.51-1.62,1.21h-5.24v-13.65h2.21v7.19c0,.34.28.62.62.62s.62-.28.62-.62v-8.43h-4.7v16.14h6.59c.28.56.85.94,1.51.94.94,0,1.7-.76,1.7-1.7s-.76-1.7-1.7-1.7ZM314.12,170.51c-.25,0-.46-.2-.46-.46s.2-.46.46-.46.46.2.46.46-.2.46-.46.46Z"></path>
              <path class="cls-5" d="M373.88,125.27c0-.94-.76-1.7-1.7-1.7s-1.7.76-1.7,1.7c0,.82.58,1.5,1.35,1.66l1.75,16.56h9.12c.34,0,.62-.28.62-.62s-.28-.62-.62-.62h-8l-1.64-15.54c.49-.3.82-.83.82-1.45ZM372.18,124.82c.25,0,.46.2.46.46s-.2.46-.46.46-.46-.2-.46-.46.2-.46.46-.46Z"></path>
              <path class="cls-5" d="M385.27,115.43c.86,0,1.56-.7,1.56-1.56s-.7-1.56-1.56-1.56c-.63,0-1.16.37-1.41.91h-7.31l-.12.46c-.74,2.75-2.49,5.09-4.94,6.59-.29.18-.38.56-.2.85.12.19.32.3.53.3.11,0,.22-.03.32-.09,2.58-1.59,4.46-4.01,5.35-6.87h6.34c.23.56.79.96,1.44.96Z"></path>
              <path class="cls-5" d="M312.14,144.29c.58,0,1.08-.32,1.35-.79h21.85l3.46-3.46h5.71c.34,0,.62-.28.62-.62s-.28-.62-.62-.62h-6.22l-3.46,3.46h-21.22c-.2-.62-.78-1.07-1.47-1.07-.86,0-1.56.7-1.56,1.56s.7,1.56,1.56,1.56Z"></path>
              <path class="cls-5" d="M306.61,150.26c.66,0,1.22-.41,1.44-.99h25.72c.34,0,.62-.28.62-.62s-.28-.62-.62-.62h-25.76c-.25-.52-.78-.88-1.4-.88-.86,0-1.56.7-1.56,1.56s.7,1.56,1.56,1.56Z"></path>
              <path class="cls-5" d="M424.54,166.35c.86,0,1.56-.7,1.56-1.56,0-.59-.34-1.1-.83-1.37v-15.4c0-.34-.28-.62-.62-.62s-.62.28-.62.62v15.3c-.61.21-1.04.78-1.04,1.46,0,.86.7,1.56,1.56,1.56Z"></path>
              <path class="cls-5" d="M423.17,85.02c0,.61.35,1.13.86,1.39v21.05h-9.76c-.34,0-.62.28-.62.62s.28.62.62.62h11v-22.23c.59-.22,1.01-.79,1.01-1.45,0-.86-.7-1.56-1.56-1.56s-1.56.7-1.56,1.56Z"></path>
              <path class="cls-5" d="M330.01,77.5c-.86,0-1.56.7-1.56,1.56s.7,1.56,1.56,1.56c.63,0,1.18-.38,1.42-.93h11.46s.05.1.09.14l6.58,6.77h19.57c.34,0,.62-.28.62-.62s-.28-.62-.62-.62h-19.05l-5.51-5.67h9.27c.34,0,.62-.28.62-.62s-.28-.62-.62-.62h-22.4c-.24-.55-.79-.94-1.43-.94Z"></path>
              <path class="cls-5" d="M324.26,40.25c.71,0,1.31-.48,1.49-1.14h11.93l.14-.42c2.19-6.37,6.66-11.69,12.58-14.96.3-.17.41-.54.24-.84-.17-.3-.54-.41-.84-.24-6.06,3.35-10.67,8.74-13.01,15.22h-11.22c-.28-.44-.76-.73-1.31-.73-.86,0-1.56.7-1.56,1.56s.7,1.56,1.56,1.56Z"></path>
              <path class="cls-5" d="M322.24,61.81v12.09h14.99l-4.7-4.7h-6.21c-.34,0-.62.28-.62.62s.28.62.62.62h5.7l2.21,2.21h-10.75v-10.68c.65-.18,1.13-.78,1.13-1.49,0-.86-.7-1.56-1.56-1.56s-1.56.7-1.56,1.56c0,.56.29,1.04.73,1.32Z"></path>
              <path class="cls-5" d="M306.02,98.04v10.66h16.79c.34,0,.62-.28.62-.62s-.28-.62-.62-.62h-15.55v-9.68c.39-.28.65-.74.65-1.26,0-.86-.7-1.56-1.56-1.56s-1.56.7-1.56,1.56c0,.74.52,1.36,1.22,1.52Z"></path>
              <path class="cls-5" d="M342.84,102.99c-.86,0-1.56.7-1.56,1.56s.7,1.56,1.56,1.56c.61,0,1.13-.35,1.39-.86h7.13l.12-.47c.77-3.04,2.53-5.79,5-7.79l2.42,2.42.43-.29c1.86-1.28,4.05-1.96,6.32-1.96,4.63,0,8.71,2.79,10.39,7.1.12.32.49.48.8.35.32-.12.48-.48.35-.8-1.87-4.79-6.4-7.89-11.55-7.89-2.35,0-4.62.65-6.59,1.9l-2.47-2.47-.43.33c-2.78,2.1-4.81,5.05-5.76,8.34h-6.1c-.22-.59-.79-1.01-1.45-1.01Z"></path>
              <path class="cls-5" d="M335.78,42.59c-.68,0-1.26.44-1.47,1.05h-11.58l-.08.53c-.27,1.94-.41,3.88-.41,5.76v6.92h4.7v-4.96c0-.34-.28-.62-.62-.62s-.62.28-.62.62v3.72h-2.21v-5.67c0-1.65.11-3.35.33-5.06h10.59c.26.5.78.84,1.38.84.86,0,1.56-.7,1.56-1.56s-.7-1.56-1.56-1.56Z"></path>
            </g>
          </g>
        </g>
        <g>
          <path class="cls-2" d="M73.63,65.56v-12.01h4.83c2.41,0,3.76,1.66,3.76,3.62s-1.39,3.62-3.76,3.62h-3.33v4.77h-1.49ZM78.27,54.88h-3.15v4.57h3.15c1.42,0,2.39-.94,2.39-2.29s-.97-2.29-2.39-2.29Z"></path>
          <path class="cls-2" d="M84.14,65.56v-12.01h1.35v12.01h-1.35Z"></path>
          <path class="cls-2" d="M93.63,65.56v-.99c-.72.79-1.71,1.21-2.88,1.21-1.48,0-3.04-.99-3.04-2.88s1.57-2.86,3.04-2.86c1.19,0,2.18.38,2.88,1.19v-1.57c0-1.17-.94-1.84-2.2-1.84-1.04,0-1.89.38-2.66,1.21l-.63-.94c.94-.97,2.05-1.44,3.48-1.44,1.84,0,3.37.83,3.37,2.94v5.98h-1.35ZM93.63,62.09c-.52-.72-1.44-1.08-2.4-1.08-1.26,0-2.14.79-2.14,1.91s.88,1.89,2.14,1.89c.95,0,1.87-.36,2.4-1.08v-1.64Z"></path>
          <path class="cls-2" d="M97.44,54.49c0-.5.41-.9.9-.9s.92.4.92.9-.41.92-.92.92-.9-.41-.9-.92ZM97.68,65.56v-8.7h1.35v8.7h-1.35Z"></path>
          <path class="cls-2" d="M107.6,65.56v-5.69c0-1.53-.77-2.02-1.94-2.02-1.06,0-2.07.65-2.57,1.35v6.36h-1.35v-8.7h1.35v1.26c.61-.72,1.8-1.48,3.1-1.48,1.82,0,2.77.92,2.77,2.81v6.1h-1.35Z"></path>
          <path class="cls-2" d="M111.91,63.74v-5.69h-1.44v-1.19h1.44v-2.38h1.35v2.38h1.76v1.19h-1.76v5.4c0,.65.29,1.12.88,1.12.38,0,.74-.16.92-.36l.4,1.01c-.34.32-.83.56-1.62.56-1.28,0-1.93-.74-1.93-2.03Z"></path>
          <path class="cls-2" d="M120.72,56.65c2.63,0,4.18,2.05,4.18,4.66v.34h-7.04c.11,1.64,1.26,3.01,3.13,3.01.99,0,2-.4,2.68-1.1l.65.88c-.86.86-2.03,1.33-3.46,1.33-2.57,0-4.43-1.85-4.43-4.57,0-2.52,1.8-4.56,4.29-4.56ZM117.85,60.66h5.71c-.02-1.3-.88-2.9-2.86-2.9-1.85,0-2.77,1.57-2.84,2.9Z"></path>
          <path class="cls-2" d="M132.13,65.56l-2.61-3.57-2.61,3.57h-1.55l3.33-4.47-3.15-4.23h1.57l2.41,3.31,2.41-3.31h1.57l-3.15,4.23,3.35,4.47h-1.57Z"></path>
          <path class="cls-2" d="M135.51,63.74v-5.69h-1.44v-1.19h1.44v-2.38h1.35v2.38h1.76v1.19h-1.76v5.4c0,.65.29,1.12.88,1.12.38,0,.74-.16.92-.36l.4,1.01c-.34.32-.83.56-1.62.56-1.28,0-1.93-.74-1.93-2.03Z"></path>
        </g>
        <g>
          <path class="cls-2" d="M585.6,59.57c0-3.69,2.72-6.21,6.12-6.21,2.18,0,3.66,1.03,4.61,2.38l-1.26.7c-.68-1.01-1.93-1.75-3.35-1.75-2.58,0-4.57,2.02-4.57,4.88s2,4.88,4.57,4.88c1.42,0,2.67-.72,3.35-1.75l1.28.7c-1.01,1.37-2.45,2.38-4.63,2.38-3.4,0-6.12-2.52-6.12-6.21Z"></path>
          <path class="cls-2" d="M597.97,54.49c0-.5.41-.9.9-.9s.92.4.92.9-.41.92-.92.92-.9-.41-.9-.92ZM598.2,65.56v-8.7h1.35v8.7h-1.35Z"></path>
          <path class="cls-2" d="M603.6,68.88h-1.35v-12.01h1.35v1.3c.63-.88,1.71-1.51,2.94-1.51,2.29,0,3.87,1.73,3.87,4.56s-1.58,4.57-3.87,4.57c-1.19,0-2.23-.56-2.94-1.53v4.63ZM606.19,57.86c-1.06,0-2.12.63-2.59,1.39v3.93c.47.76,1.53,1.4,2.59,1.4,1.75,0,2.79-1.44,2.79-3.37s-1.04-3.35-2.79-3.35Z"></path>
          <path class="cls-2" d="M618.47,65.56v-5.73c0-1.53-.79-1.98-1.96-1.98-1.04,0-2.05.65-2.58,1.35v6.36h-1.35v-12.01h1.35v4.57c.61-.72,1.8-1.48,3.12-1.48,1.82,0,2.77.88,2.77,2.77v6.14h-1.35Z"></path>
          <path class="cls-2" d="M626.3,56.65c2.63,0,4.18,2.05,4.18,4.66v.34h-7.04c.11,1.64,1.26,3.01,3.13,3.01.99,0,2-.4,2.68-1.1l.65.88c-.86.86-2.03,1.33-3.46,1.33-2.58,0-4.43-1.85-4.43-4.57,0-2.52,1.8-4.56,4.29-4.56ZM623.44,60.66h5.71c-.02-1.3-.88-2.9-2.86-2.9-1.85,0-2.77,1.57-2.84,2.9Z"></path>
          <path class="cls-2" d="M632.65,65.56v-8.7h1.35v1.4c.7-.92,1.71-1.58,2.9-1.58v1.39c-.16-.04-.32-.05-.54-.05-.83,0-1.96.68-2.36,1.39v6.16h-1.35Z"></path>
          <path class="cls-2" d="M638.86,63.74v-5.69h-1.44v-1.19h1.44v-2.38h1.35v2.38h1.76v1.19h-1.76v5.4c0,.65.29,1.12.88,1.12.38,0,.74-.16.92-.36l.4,1.01c-.34.32-.83.56-1.62.56-1.28,0-1.93-.74-1.93-2.03Z"></path>
          <path class="cls-2" d="M647.67,56.65c2.63,0,4.18,2.05,4.18,4.66v.34h-7.04c.11,1.64,1.26,3.01,3.13,3.01.99,0,2-.4,2.68-1.1l.65.88c-.86.86-2.03,1.33-3.46,1.33-2.58,0-4.43-1.85-4.43-4.57,0-2.52,1.8-4.56,4.29-4.56ZM644.8,60.66h5.71c-.02-1.3-.88-2.9-2.86-2.9-1.85,0-2.77,1.57-2.84,2.9Z"></path>
          <path class="cls-2" d="M659.08,65.56l-2.61-3.57-2.61,3.57h-1.55l3.33-4.47-3.15-4.23h1.57l2.41,3.31,2.41-3.31h1.57l-3.15,4.23,3.35,4.47h-1.57Z"></path>
          <path class="cls-2" d="M662.46,63.74v-5.69h-1.44v-1.19h1.44v-2.38h1.35v2.38h1.76v1.19h-1.76v5.4c0,.65.29,1.12.88,1.12.38,0,.74-.16.92-.36l.4,1.01c-.34.32-.83.56-1.62.56-1.28,0-1.93-.74-1.93-2.03Z"></path>
        </g>
        <g>
          <path class="cls-2" d="M325.1,204.5v-12.01h7.87v1.33h-6.37v3.87h6.25v1.33h-6.25v4.14h6.37v1.33h-7.87Z"></path>
          <path class="cls-2" d="M341.16,204.5v-5.69c0-1.53-.77-2.02-1.94-2.02-1.06,0-2.07.65-2.57,1.35v6.36h-1.35v-8.7h1.35v1.26c.61-.72,1.8-1.48,3.1-1.48,1.82,0,2.77.92,2.77,2.81v6.1h-1.35Z"></path>
          <path class="cls-2" d="M349.04,195.59c1.58,0,2.52.65,3.19,1.51l-.9.83c-.58-.79-1.31-1.13-2.21-1.13-1.85,0-3.01,1.42-3.01,3.35s1.15,3.37,3.01,3.37c.9,0,1.64-.36,2.21-1.13l.9.83c-.67.87-1.6,1.51-3.19,1.51-2.59,0-4.34-1.98-4.34-4.57s1.75-4.56,4.34-4.56Z"></path>
          <path class="cls-2" d="M354.12,204.5v-8.7h1.35v1.4c.7-.92,1.71-1.58,2.9-1.58v1.39c-.16-.04-.32-.05-.54-.05-.83,0-1.96.68-2.36,1.39v6.16h-1.35Z"></path>
          <path class="cls-2" d="M359.79,206.68c.2.09.52.14.74.14.59,0,.99-.2,1.3-.92l.58-1.31-3.64-8.79h1.46l2.9,7.13,2.88-7.13h1.48l-4.36,10.46c-.52,1.26-1.4,1.75-2.56,1.76-.29,0-.74-.05-.99-.13l.22-1.22Z"></path>
          <path class="cls-2" d="M370.23,207.82h-1.35v-12.01h1.35v1.3c.63-.88,1.71-1.51,2.93-1.51,2.29,0,3.87,1.73,3.87,4.56s-1.58,4.57-3.87,4.57c-1.19,0-2.23-.56-2.93-1.53v4.63ZM372.82,196.8c-1.06,0-2.12.63-2.59,1.39v3.93c.47.76,1.53,1.4,2.59,1.4,1.75,0,2.79-1.44,2.79-3.37s-1.04-3.35-2.79-3.35Z"></path>
          <path class="cls-2" d="M379.48,202.69v-5.69h-1.44v-1.19h1.44v-2.38h1.35v2.38h1.76v1.19h-1.76v5.4c0,.65.29,1.12.88,1.12.38,0,.74-.16.92-.36l.4,1.01c-.34.32-.83.56-1.62.56-1.28,0-1.93-.74-1.93-2.03Z"></path>
          <path class="cls-2" d="M384.27,193.43c0-.5.41-.9.9-.9s.92.4.92.9-.41.92-.92.92-.9-.41-.9-.92ZM384.5,204.5v-8.7h1.35v8.7h-1.35Z"></path>
          <path class="cls-2" d="M388.05,200.15c0-2.52,1.66-4.56,4.3-4.56s4.3,2.04,4.3,4.56-1.66,4.57-4.3,4.57-4.3-2.05-4.3-4.57ZM395.23,200.15c0-1.76-1.03-3.35-2.88-3.35s-2.9,1.58-2.9,3.35,1.04,3.37,2.9,3.37,2.88-1.58,2.88-3.37Z"></path>
          <path class="cls-2" d="M404.72,204.5v-5.69c0-1.53-.77-2.02-1.94-2.02-1.06,0-2.07.65-2.57,1.35v6.36h-1.35v-8.7h1.35v1.26c.61-.72,1.8-1.48,3.1-1.48,1.82,0,2.77.92,2.77,2.81v6.1h-1.35Z"></path>
        </g>
        <g>
          <line class="cls-7" x1="439.59" y1="122.27" x2="512.22" y2="122.27"></line>
          <path class="cls-5" d="M518.26,122.27c-2.84,1.05-6.36,2.85-8.55,4.76l1.72-4.76-1.72-4.75c2.18,1.9,5.71,3.7,8.55,4.75Z"></path>
        </g>
        <g>
          <line class="cls-7" x1="213.07" y1="122.27" x2="285.3" y2="122.27"></line>
          <path class="cls-5" d="M291.33,122.27c-2.84,1.05-6.36,2.85-8.55,4.76l1.72-4.76-1.72-4.75c2.18,1.9,5.71,3.7,8.55,4.75Z"></path>
        </g>
      </g>
    </g>
  </g>
</svg>
